<svg xmlns="http://www.w3.org/2000/svg" xmlns:xlink="http://www.w3.org/1999/xlink" width="500" zoomAndPan="magnify" viewBox="0 0 375 374.999991" height="500" preserveAspectRatio="xMidYMid meet" version="1.0"><defs><clipPath id="b5c7448006"><path d="M 72 148 L 175 148 L 175 310 L 72 310 Z M 72 148 " clip-rule="nonzero"/></clipPath><clipPath id="ef91c56a70"><path d="M 137.148438 326.355469 L 39.511719 228.71875 L 147.320312 120.910156 L 244.957031 218.546875 Z M 137.148438 326.355469 " clip-rule="nonzero"/></clipPath><clipPath id="3345b4017c"><path d="M 137.148438 326.355469 L 39.511719 228.71875 L 147.320312 120.910156 L 244.957031 218.546875 Z M 137.148438 326.355469 " clip-rule="nonzero"/></clipPath><clipPath id="7f1521ca7d"><path d="M 116.609375 191.980469 C 114.796875 193.792969 113.125 195.730469 111.601562 197.789062 C 110.074219 199.851562 108.707031 202.011719 107.5 204.273438 C 106.296875 206.535156 105.261719 208.875 104.402344 211.292969 C 103.542969 213.707031 102.863281 216.175781 102.367188 218.695312 C 101.871094 221.210938 101.5625 223.753906 101.441406 226.320312 C 101.320312 228.882812 101.390625 231.445312 101.648438 234 C 101.902344 236.558594 102.347656 239.082031 102.976562 241.574219 C 103.605469 244.070312 104.414062 246.503906 105.402344 248.878906 C 106.390625 251.253906 107.546875 253.542969 108.871094 255.75 C 110.195312 257.953125 111.675781 260.050781 113.308594 262.039062 C 114.945312 264.03125 116.714844 265.886719 118.621094 267.617188 C 120.527344 269.347656 122.550781 270.925781 124.6875 272.355469 C 126.828125 273.789062 129.058594 275.054688 131.382812 276.160156 C 133.707031 277.261719 136.101562 278.1875 138.558594 278.9375 C 141.019531 279.6875 143.519531 280.253906 146.0625 280.636719 C 148.601562 281.019531 151.15625 281.210938 153.726562 281.21875 L 153.714844 277.433594 C 152.128906 277.429688 150.542969 277.347656 148.964844 277.1875 C 147.386719 277.03125 145.816406 276.792969 144.261719 276.480469 C 142.703125 276.167969 141.164062 275.777344 139.648438 275.3125 C 138.128906 274.851562 136.632812 274.3125 135.167969 273.703125 C 133.699219 273.09375 132.265625 272.410156 130.863281 271.660156 C 129.464844 270.910156 128.101562 270.089844 126.78125 269.207031 C 125.460938 268.320312 124.1875 267.375 122.957031 266.363281 C 121.730469 265.355469 120.550781 264.289062 119.429688 263.164062 C 118.304688 262.039062 117.238281 260.863281 116.230469 259.632812 C 115.21875 258.40625 114.273438 257.128906 113.390625 255.808594 C 112.503906 254.488281 111.6875 253.125 110.9375 251.726562 C 110.1875 250.324219 109.507812 248.890625 108.894531 247.421875 C 108.285156 245.953125 107.75 244.460938 107.285156 242.941406 C 106.820312 241.421875 106.433594 239.882812 106.121094 238.328125 C 105.808594 236.769531 105.574219 235.203125 105.414062 233.621094 C 105.257812 232.042969 105.175781 230.460938 105.171875 228.871094 C 105.167969 227.285156 105.246094 225.703125 105.398438 224.125 C 105.550781 222.546875 105.777344 220.976562 106.085938 219.421875 C 106.390625 217.867188 106.773438 216.332031 107.230469 214.8125 C 107.691406 213.296875 108.222656 211.804688 108.824219 210.339844 C 109.429688 208.875 110.105469 207.445312 110.851562 206.046875 C 111.59375 204.648438 112.40625 203.292969 113.285156 201.972656 C 114.164062 200.65625 115.105469 199.386719 116.113281 198.160156 C 117.117188 196.9375 118.179688 195.765625 119.296875 194.644531 C 120.417969 193.527344 121.589844 192.464844 122.816406 191.460938 C 124.039062 190.457031 125.3125 189.515625 126.628906 188.636719 C 127.945312 187.757812 129.304688 186.945312 130.703125 186.203125 C 132.101562 185.457031 133.53125 184.78125 134.996094 184.179688 C 136.460938 183.574219 137.953125 183.042969 139.46875 182.585938 C 140.988281 182.128906 142.523438 181.75 144.078125 181.441406 C 145.636719 181.136719 147.203125 180.90625 148.78125 180.753906 C 150.359375 180.605469 151.941406 180.53125 153.53125 180.535156 L 174.90625 180.578125 L 174.894531 176.792969 L 153.519531 176.777344 C 150.085938 176.757812 146.6875 177.078125 143.324219 177.734375 C 139.957031 178.390625 136.691406 179.371094 133.523438 180.675781 C 130.355469 181.980469 127.347656 183.585938 124.5 185.488281 C 121.65625 187.390625 119.023438 189.554688 116.609375 191.980469 Z M 130.039062 205.414062 C 128.882812 206.566406 127.820312 207.800781 126.847656 209.113281 C 125.875 210.425781 125.007812 211.800781 124.238281 213.242188 C 123.46875 214.683594 122.8125 216.175781 122.265625 217.714844 C 121.714844 219.253906 121.285156 220.828125 120.96875 222.429688 C 120.652344 224.035156 120.457031 225.652344 120.378906 227.289062 C 120.300781 228.921875 120.34375 230.554688 120.507812 232.183594 C 120.671875 233.8125 120.953125 235.417969 121.355469 237.007812 C 121.757812 238.59375 122.273438 240.144531 122.902344 241.660156 C 123.53125 243.171875 124.265625 244.632812 125.109375 246.035156 C 125.953125 247.441406 126.898438 248.777344 127.9375 250.046875 C 128.976562 251.3125 130.105469 252.496094 131.320312 253.597656 C 132.535156 254.699219 133.824219 255.707031 135.1875 256.617188 C 136.546875 257.53125 137.96875 258.339844 139.449219 259.039062 C 140.929688 259.742188 142.453125 260.335938 144.019531 260.8125 C 145.589844 261.292969 147.179688 261.652344 148.800781 261.894531 C 150.417969 262.140625 152.046875 262.261719 153.683594 262.265625 L 153.675781 258.480469 C 152.710938 258.476562 151.746094 258.429688 150.785156 258.332031 C 149.820312 258.234375 148.867188 258.089844 147.917969 257.902344 C 146.972656 257.710938 146.035156 257.476562 145.109375 257.191406 C 144.183594 256.910156 143.277344 256.585938 142.382812 256.210938 C 141.488281 255.839844 140.617188 255.425781 139.761719 254.96875 C 138.910156 254.511719 138.082031 254.015625 137.277344 253.476562 C 136.472656 252.9375 135.695312 252.363281 134.949219 251.75 C 134.199219 251.132812 133.484375 250.484375 132.800781 249.800781 C 132.113281 249.117188 131.464844 248.398438 130.851562 247.652344 C 130.234375 246.902344 129.660156 246.128906 129.121094 245.324219 C 128.582031 244.519531 128.085938 243.691406 127.628906 242.835938 C 127.171875 241.984375 126.757812 241.113281 126.386719 240.21875 C 126.011719 239.324219 125.6875 238.417969 125.402344 237.492188 C 125.121094 236.566406 124.886719 235.628906 124.695312 234.683594 C 124.503906 233.734375 124.359375 232.78125 124.265625 231.816406 C 124.167969 230.855469 124.117188 229.890625 124.117188 228.925781 C 124.113281 227.960938 124.160156 226.996094 124.253906 226.035156 C 124.34375 225.074219 124.484375 224.121094 124.671875 223.171875 C 124.859375 222.226562 125.089844 221.292969 125.371094 220.367188 C 125.648438 219.445312 125.972656 218.535156 126.339844 217.644531 C 126.707031 216.753906 127.117188 215.882812 127.570312 215.03125 C 128.023438 214.179688 128.519531 213.351562 129.054688 212.550781 C 129.589844 211.75 130.164062 210.976562 130.773438 210.230469 C 131.386719 209.484375 132.03125 208.769531 132.714844 208.089844 C 133.394531 207.410156 134.109375 206.761719 134.855469 206.152344 C 135.601562 205.539062 136.375 204.96875 137.175781 204.433594 C 137.980469 203.898438 138.804688 203.402344 139.65625 202.949219 C 140.507812 202.496094 141.378906 202.085938 142.273438 201.71875 C 143.164062 201.351562 144.070312 201.027344 144.996094 200.75 C 145.917969 200.472656 146.855469 200.238281 147.800781 200.054688 C 148.75 199.867188 149.703125 199.726562 150.664062 199.636719 C 151.625 199.542969 152.589844 199.5 153.554688 199.5 L 174.960938 199.546875 L 174.949219 195.761719 L 153.542969 195.714844 C 151.359375 195.707031 149.195312 195.910156 147.050781 196.328125 C 144.90625 196.75 142.828125 197.375 140.808594 198.207031 C 138.792969 199.039062 136.878906 200.0625 135.066406 201.273438 C 133.25 202.488281 131.578125 203.867188 130.039062 205.414062 Z M 123.3125 198.683594 C 121.828125 200.167969 120.464844 201.753906 119.214844 203.4375 C 117.96875 205.125 116.851562 206.894531 115.867188 208.746094 C 114.878906 210.59375 114.035156 212.511719 113.332031 214.488281 C 112.628906 216.464844 112.074219 218.484375 111.667969 220.542969 C 111.261719 222.601562 111.011719 224.683594 110.910156 226.78125 C 110.8125 228.878906 110.871094 230.972656 111.078125 233.066406 C 111.289062 235.15625 111.652344 237.222656 112.167969 239.261719 C 112.683594 241.300781 113.34375 243.292969 114.152344 245.238281 C 114.957031 247.179688 115.90625 249.054688 116.988281 250.859375 C 118.070312 252.664062 119.28125 254.378906 120.617188 256.007812 C 121.953125 257.632812 123.402344 259.15625 124.960938 260.570312 C 126.519531 261.984375 128.175781 263.277344 129.921875 264.449219 C 131.671875 265.621094 133.496094 266.660156 135.398438 267.5625 C 137.300781 268.46875 139.257812 269.226562 141.269531 269.839844 C 143.28125 270.457031 145.324219 270.921875 147.402344 271.234375 C 149.484375 271.550781 151.574219 271.710938 153.675781 271.714844 L 153.695312 267.957031 C 152.4375 267.921875 151.1875 267.828125 149.9375 267.671875 C 148.691406 267.519531 147.453125 267.304688 146.226562 267.03125 C 145 266.753906 143.789062 266.421875 142.59375 266.03125 C 141.398438 265.640625 140.222656 265.191406 139.070312 264.6875 C 137.917969 264.183594 136.792969 263.625 135.691406 263.011719 C 134.59375 262.394531 133.527344 261.730469 132.492188 261.015625 C 131.457031 260.300781 130.457031 259.535156 129.496094 258.722656 C 128.535156 257.910156 127.613281 257.050781 126.734375 256.152344 C 125.855469 255.25 125.019531 254.308594 124.230469 253.328125 C 123.445312 252.347656 122.703125 251.328125 122.011719 250.277344 C 121.324219 249.222656 120.683594 248.140625 120.097656 247.027344 C 119.511719 245.914062 118.980469 244.773438 118.507812 243.609375 C 118.03125 242.445312 117.609375 241.257812 117.25 240.054688 C 116.886719 238.847656 116.585938 237.628906 116.339844 236.394531 C 116.097656 235.164062 115.914062 233.921875 115.789062 232.667969 C 115.664062 231.417969 115.601562 230.164062 115.601562 228.910156 C 115.597656 227.652344 115.65625 226.398438 115.773438 225.148438 C 115.894531 223.898438 116.070312 222.65625 116.3125 221.425781 C 116.550781 220.191406 116.847656 218.972656 117.203125 217.769531 C 117.5625 216.566406 117.972656 215.382812 118.445312 214.222656 C 118.917969 213.058594 119.445312 211.921875 120.023438 210.808594 C 120.605469 209.699219 121.238281 208.617188 121.925781 207.570312 C 122.613281 206.519531 123.347656 205.503906 124.132812 204.527344 C 124.917969 203.550781 125.746094 202.609375 126.621094 201.714844 C 127.5 200.816406 128.414062 199.964844 129.375 199.15625 C 130.332031 198.347656 131.328125 197.585938 132.359375 196.875 C 133.390625 196.164062 134.457031 195.503906 135.554688 194.894531 C 136.648438 194.285156 137.773438 193.730469 138.925781 193.230469 C 140.074219 192.730469 141.246094 192.289062 142.441406 191.902344 C 143.636719 191.515625 144.84375 191.1875 146.070312 190.917969 C 147.296875 190.648438 148.535156 190.441406 149.78125 190.289062 C 151.027344 190.140625 152.28125 190.050781 153.535156 190.023438 L 174.925781 190.070312 L 174.917969 186.285156 L 153.523438 186.238281 C 150.714844 186.226562 147.933594 186.488281 145.183594 187.027344 C 142.429688 187.566406 139.757812 188.371094 137.164062 189.441406 C 134.570312 190.507812 132.113281 191.824219 129.78125 193.382812 C 127.453125 194.941406 125.300781 196.710938 123.324219 198.699219 Z M 103.164062 178.539062 C 102.339844 179.359375 101.539062 180.203125 100.761719 181.0625 C 99.980469 181.925781 99.222656 182.804688 98.484375 183.707031 C 97.746094 184.605469 97.03125 185.519531 96.339844 186.457031 C 95.648438 187.390625 94.980469 188.339844 94.335938 189.308594 C 93.691406 190.277344 93.070312 191.257812 92.472656 192.257812 C 91.878906 193.253906 91.304688 194.269531 90.761719 195.292969 C 90.214844 196.320312 89.691406 197.359375 89.195312 198.414062 C 88.699219 199.464844 88.230469 200.527344 87.789062 201.605469 C 87.34375 202.679688 86.929688 203.765625 86.539062 204.863281 C 86.148438 205.957031 85.785156 207.0625 85.449219 208.175781 C 85.117188 209.292969 84.808594 210.414062 84.527344 211.542969 C 84.246094 212.671875 83.996094 213.808594 83.769531 214.949219 C 83.546875 216.09375 83.347656 217.238281 83.179688 218.390625 C 83.011719 219.542969 82.871094 220.699219 82.761719 221.859375 C 82.648438 223.015625 82.566406 224.179688 82.511719 225.34375 C 82.457031 226.503906 82.433594 227.667969 82.433594 228.835938 C 82.4375 230 82.46875 231.164062 82.527344 232.328125 C 82.589844 233.492188 82.675781 234.652344 82.792969 235.8125 C 82.910156 236.972656 83.054688 238.128906 83.230469 239.28125 C 83.402344 240.433594 83.605469 241.582031 83.835938 242.722656 C 84.066406 243.867188 84.324219 245.003906 84.609375 246.132812 C 84.894531 247.265625 85.207031 248.386719 85.546875 249.503906 C 85.890625 250.617188 86.257812 251.726562 86.652344 252.824219 C 87.046875 253.921875 87.46875 255.007812 87.917969 256.085938 C 88.367188 257.164062 88.839844 258.226562 89.339844 259.28125 C 89.839844 260.335938 90.367188 261.378906 90.917969 262.40625 C 91.46875 263.433594 92.046875 264.449219 92.648438 265.449219 C 93.25 266.449219 93.875 267.433594 94.523438 268.402344 C 95.171875 269.375 95.847656 270.328125 96.542969 271.265625 C 97.238281 272.199219 97.957031 273.121094 98.699219 274.023438 C 99.441406 274.925781 100.203125 275.808594 100.988281 276.671875 C 101.769531 277.535156 102.574219 278.382812 103.402344 279.207031 C 106.703125 282.53125 110.300781 285.496094 114.1875 288.109375 C 118.078125 290.722656 122.183594 292.925781 126.503906 294.726562 C 130.828125 296.523438 135.28125 297.882812 139.871094 298.800781 C 144.460938 299.714844 149.089844 300.171875 153.765625 300.171875 L 153.738281 296.402344 C 152.636719 296.398438 151.535156 296.367188 150.433594 296.3125 C 149.332031 296.253906 148.230469 296.171875 147.132812 296.0625 C 146.035156 295.953125 144.941406 295.8125 143.851562 295.648438 C 142.757812 295.484375 141.671875 295.296875 140.589844 295.078125 C 139.507812 294.859375 138.429688 294.617188 137.359375 294.347656 C 136.289062 294.074219 135.226562 293.78125 134.171875 293.457031 C 133.113281 293.132812 132.066406 292.785156 131.027344 292.414062 C 129.988281 292.039062 128.957031 291.640625 127.9375 291.214844 C 126.917969 290.792969 125.910156 290.34375 124.910156 289.867188 C 123.914062 289.394531 122.929688 288.898438 121.953125 288.375 C 120.980469 287.855469 120.019531 287.308594 119.074219 286.738281 C 118.125 286.171875 117.191406 285.578125 116.273438 284.964844 C 115.355469 284.347656 114.453125 283.710938 113.566406 283.054688 C 112.679688 282.394531 111.808594 281.714844 110.953125 281.011719 C 110.101562 280.3125 109.261719 279.589844 108.445312 278.847656 C 107.625 278.105469 106.824219 277.34375 106.042969 276.5625 C 105.261719 275.78125 104.5 274.980469 103.757812 274.160156 C 103.015625 273.339844 102.292969 272.503906 101.59375 271.652344 C 100.890625 270.796875 100.210938 269.925781 99.550781 269.039062 C 98.894531 268.152344 98.257812 267.25 97.640625 266.332031 C 97.027344 265.414062 96.433594 264.480469 95.867188 263.53125 C 95.296875 262.585938 94.75 261.625 94.230469 260.652344 C 93.707031 259.675781 93.210938 258.691406 92.734375 257.691406 C 92.261719 256.695312 91.8125 255.6875 91.390625 254.667969 C 90.964844 253.644531 90.566406 252.617188 90.191406 251.578125 C 89.820312 250.539062 89.46875 249.492188 89.148438 248.433594 C 88.824219 247.378906 88.53125 246.316406 88.257812 245.246094 C 87.988281 244.175781 87.746094 243.097656 87.527344 242.015625 C 87.308594 240.933594 87.121094 239.847656 86.957031 238.753906 C 86.789062 237.664062 86.652344 236.570312 86.542969 235.472656 C 86.433594 234.375 86.347656 233.273438 86.292969 232.171875 C 86.238281 231.070312 86.207031 229.96875 86.203125 228.863281 C 86.203125 227.761719 86.226562 226.660156 86.277344 225.558594 C 86.332031 224.457031 86.410156 223.355469 86.515625 222.257812 C 86.621094 221.164062 86.753906 220.066406 86.914062 218.976562 C 87.074219 217.886719 87.261719 216.800781 87.472656 215.71875 C 87.6875 214.636719 87.925781 213.5625 88.191406 212.492188 C 88.457031 211.421875 88.75 210.363281 89.066406 209.308594 C 89.386719 208.253906 89.730469 207.207031 90.097656 206.167969 C 90.46875 205.128906 90.863281 204.101562 91.28125 203.085938 C 91.703125 202.066406 92.148438 201.058594 92.617188 200.0625 C 93.085938 199.066406 93.578125 198.082031 94.097656 197.109375 C 94.617188 196.140625 95.15625 195.179688 95.722656 194.234375 C 96.289062 193.292969 96.875 192.359375 97.484375 191.445312 C 98.097656 190.53125 98.730469 189.628906 99.386719 188.746094 C 100.039062 187.859375 100.71875 186.992188 101.414062 186.140625 C 102.113281 185.289062 102.832031 184.457031 103.570312 183.640625 C 104.308594 182.824219 105.066406 182.027344 105.847656 181.25 C 106.625 180.472656 107.421875 179.710938 108.238281 178.972656 C 109.054688 178.234375 109.886719 177.515625 110.738281 176.816406 C 111.589844 176.121094 112.457031 175.445312 113.339844 174.789062 C 114.226562 174.132812 115.125 173.5 116.042969 172.890625 C 116.957031 172.277344 117.886719 171.691406 118.832031 171.125 C 119.777344 170.558594 120.738281 170.019531 121.707031 169.5 C 122.679688 168.984375 123.664062 168.488281 124.660156 168.019531 C 125.65625 167.550781 126.664062 167.105469 127.679688 166.683594 C 128.699219 166.265625 129.726562 165.871094 130.765625 165.5 C 131.804688 165.132812 132.847656 164.789062 133.902344 164.46875 C 134.957031 164.152344 136.019531 163.859375 137.089844 163.59375 C 138.160156 163.328125 139.234375 163.089844 140.316406 162.875 C 141.398438 162.664062 142.484375 162.476562 143.574219 162.316406 C 144.664062 162.15625 145.757812 162.023438 146.855469 161.917969 C 147.953125 161.8125 149.054688 161.734375 150.15625 161.683594 C 151.257812 161.628906 152.359375 161.605469 153.460938 161.609375 L 174.832031 161.636719 L 174.820312 157.855469 L 153.464844 157.808594 C 148.789062 157.785156 144.160156 158.222656 139.574219 159.121094 C 134.988281 160.015625 130.539062 161.355469 126.222656 163.132812 C 121.90625 164.914062 117.808594 167.101562 113.929688 169.695312 C 110.050781 172.292969 106.46875 175.242188 103.175781 178.550781 Z M 136.738281 212.113281 C 135.910156 212.9375 135.152344 213.820312 134.457031 214.757812 C 133.761719 215.699219 133.140625 216.683594 132.589844 217.714844 C 132.039062 218.746094 131.570312 219.808594 131.179688 220.910156 C 130.785156 222.011719 130.476562 223.136719 130.253906 224.285156 C 130.027344 225.429688 129.886719 226.589844 129.832031 227.757812 C 129.777344 228.925781 129.808594 230.09375 129.925781 231.257812 C 130.042969 232.421875 130.242188 233.574219 130.53125 234.710938 C 130.816406 235.84375 131.183594 236.953125 131.636719 238.035156 C 132.085938 239.117188 132.613281 240.160156 133.214844 241.167969 C 133.820312 242.171875 134.492188 243.128906 135.238281 244.035156 C 135.980469 244.941406 136.789062 245.785156 137.65625 246.574219 C 138.523438 247.363281 139.445312 248.082031 140.421875 248.734375 C 141.394531 249.386719 142.410156 249.964844 143.46875 250.46875 C 144.527344 250.96875 145.617188 251.390625 146.738281 251.734375 C 147.859375 252.078125 149 252.335938 150.15625 252.511719 C 151.316406 252.683594 152.480469 252.773438 153.648438 252.777344 L 153.644531 248.992188 C 152.988281 248.988281 152.335938 248.957031 151.683594 248.890625 C 151.03125 248.824219 150.382812 248.726562 149.738281 248.597656 C 149.097656 248.46875 148.460938 248.308594 147.832031 248.117188 C 147.207031 247.925781 146.589844 247.703125 145.984375 247.453125 C 145.375 247.199219 144.785156 246.917969 144.207031 246.609375 C 143.625 246.296875 143.0625 245.960938 142.519531 245.59375 C 141.972656 245.230469 141.445312 244.839844 140.9375 244.421875 C 140.429688 244.003906 139.945312 243.5625 139.480469 243.101562 C 139.015625 242.636719 138.574219 242.148438 138.160156 241.640625 C 137.742188 241.132812 137.351562 240.609375 136.984375 240.0625 C 136.621094 239.515625 136.28125 238.953125 135.972656 238.375 C 135.660156 237.796875 135.378906 237.203125 135.128906 236.597656 C 134.875 235.992188 134.65625 235.375 134.464844 234.746094 C 134.269531 234.121094 134.109375 233.484375 133.980469 232.839844 C 133.851562 232.199219 133.753906 231.550781 133.691406 230.898438 C 133.625 230.246094 133.589844 229.589844 133.589844 228.9375 C 133.585938 228.28125 133.617188 227.625 133.679688 226.972656 C 133.746094 226.320312 133.839844 225.675781 133.964844 225.03125 C 134.09375 224.390625 134.25 223.753906 134.4375 223.128906 C 134.628906 222.5 134.847656 221.886719 135.097656 221.28125 C 135.347656 220.675781 135.625 220.082031 135.933594 219.507812 C 136.242188 218.929688 136.574219 218.367188 136.9375 217.824219 C 137.300781 217.28125 137.691406 216.753906 138.105469 216.25 C 138.519531 215.742188 138.957031 215.257812 139.421875 214.796875 C 139.882812 214.332031 140.367188 213.894531 140.875 213.480469 C 141.378906 213.066406 141.90625 212.675781 142.449219 212.3125 C 142.992188 211.949219 143.554688 211.613281 144.132812 211.308594 C 144.710938 211 145.300781 210.722656 145.90625 210.472656 C 146.511719 210.222656 147.125 210.003906 147.753906 209.8125 C 148.378906 209.625 149.015625 209.464844 149.65625 209.339844 C 150.300781 209.214844 150.949219 209.117188 151.597656 209.054688 C 152.25 208.992188 152.90625 208.960938 153.5625 208.964844 L 174.980469 209.035156 L 174.960938 205.253906 L 153.550781 205.207031 C 151.988281 205.199219 150.441406 205.34375 148.910156 205.644531 C 147.378906 205.945312 145.894531 206.390625 144.453125 206.984375 C 143.011719 207.578125 141.640625 208.308594 140.34375 209.171875 C 139.050781 210.039062 137.851562 211.023438 136.75 212.125 Z M 109.878906 185.253906 C 108.808594 186.324219 107.78125 187.429688 106.792969 188.578125 C 105.804688 189.722656 104.859375 190.902344 103.960938 192.117188 C 103.058594 193.332031 102.203125 194.578125 101.394531 195.859375 C 100.589844 197.136719 99.828125 198.441406 99.117188 199.777344 C 98.402344 201.113281 97.742188 202.472656 97.128906 203.855469 C 96.519531 205.242188 95.957031 206.644531 95.449219 208.070312 C 94.941406 209.496094 94.488281 210.941406 94.085938 212.398438 C 93.683594 213.859375 93.339844 215.332031 93.046875 216.820312 C 92.753906 218.304688 92.515625 219.800781 92.332031 221.304688 C 92.148438 222.808594 92.023438 224.316406 91.953125 225.828125 C 91.878906 227.34375 91.863281 228.859375 91.90625 230.371094 C 91.945312 231.886719 92.039062 233.398438 92.191406 234.910156 C 92.34375 236.417969 92.550781 237.917969 92.8125 239.414062 C 93.074219 240.90625 93.390625 242.390625 93.761719 243.859375 C 94.136719 245.332031 94.558594 246.785156 95.039062 248.226562 C 95.515625 249.667969 96.046875 251.085938 96.628906 252.488281 C 97.214844 253.890625 97.847656 255.269531 98.53125 256.625 C 99.214844 257.980469 99.949219 259.308594 100.730469 260.609375 C 101.511719 261.910156 102.339844 263.183594 103.21875 264.421875 C 104.09375 265.664062 105.011719 266.871094 105.976562 268.042969 C 106.941406 269.21875 107.945312 270.355469 108.992188 271.453125 C 110.042969 272.554688 111.128906 273.613281 112.253906 274.632812 C 113.378906 275.652344 114.539062 276.632812 115.738281 277.566406 C 116.933594 278.5 118.164062 279.390625 119.425781 280.234375 C 120.6875 281.078125 121.980469 281.875 123.300781 282.625 C 124.621094 283.375 125.964844 284.074219 127.335938 284.726562 C 128.710938 285.375 130.101562 285.976562 131.519531 286.523438 C 132.933594 287.070312 134.367188 287.566406 135.816406 288.007812 C 137.269531 288.453125 138.734375 288.839844 140.214844 289.175781 C 141.695312 289.507812 143.183594 289.789062 144.683594 290.015625 C 146.183594 290.238281 147.6875 290.410156 149.203125 290.523438 C 150.714844 290.636719 152.226562 290.695312 153.742188 290.699219 L 153.734375 286.910156 C 151.847656 286.886719 149.96875 286.777344 148.089844 286.570312 C 146.214844 286.367188 144.351562 286.070312 142.503906 285.683594 C 140.65625 285.296875 138.832031 284.824219 137.03125 284.257812 C 135.230469 283.695312 133.457031 283.042969 131.71875 282.304688 C 129.980469 281.570312 128.28125 280.75 126.621094 279.847656 C 124.960938 278.945312 123.347656 277.960938 121.78125 276.902344 C 120.21875 275.84375 118.707031 274.707031 117.253906 273.503906 C 115.800781 272.296875 114.40625 271.019531 113.078125 269.675781 C 111.746094 268.335938 110.484375 266.929688 109.289062 265.464844 C 108.097656 264 106.976562 262.480469 105.929688 260.90625 C 104.882812 259.332031 103.917969 257.710938 103.03125 256.042969 C 102.140625 254.375 101.335938 252.667969 100.613281 250.925781 C 99.894531 249.179688 99.257812 247.402344 98.710938 245.59375 C 98.164062 243.789062 97.703125 241.957031 97.332031 240.105469 C 96.964844 238.257812 96.683594 236.390625 96.496094 234.515625 C 96.308594 232.636719 96.214844 230.753906 96.210938 228.867188 C 96.207031 226.980469 96.292969 225.101562 96.472656 223.222656 C 96.652344 221.347656 96.925781 219.484375 97.289062 217.632812 C 97.648438 215.785156 98.101562 213.957031 98.640625 212.152344 C 99.183594 210.347656 99.808594 208.574219 100.523438 206.832031 C 101.238281 205.089844 102.035156 203.386719 102.917969 201.722656 C 103.796875 200.058594 104.757812 198.441406 105.796875 196.871094 C 106.835938 195.300781 107.953125 193.785156 109.140625 192.324219 C 110.328125 190.867188 111.582031 189.46875 112.910156 188.128906 C 114.234375 186.792969 115.621094 185.523438 117.070312 184.324219 C 118.519531 183.121094 120.023438 181.996094 121.585938 180.941406 C 123.144531 179.890625 124.753906 178.914062 126.410156 178.019531 C 128.066406 177.121094 129.761719 176.308594 131.5 175.578125 C 133.234375 174.851562 135.003906 174.207031 136.804688 173.648438 C 138.601562 173.09375 140.425781 172.625 142.273438 172.246094 C 144.117188 171.867188 145.980469 171.582031 147.855469 171.382812 C 149.730469 171.1875 151.609375 171.082031 153.496094 171.070312 L 174.863281 171.117188 L 174.847656 167.332031 L 153.484375 167.285156 C 149.429688 167.265625 145.417969 167.644531 141.445312 168.421875 C 137.46875 169.199219 133.609375 170.359375 129.871094 171.902344 C 126.128906 173.445312 122.578125 175.34375 119.214844 177.59375 C 115.851562 179.84375 112.746094 182.402344 109.894531 185.269531 Z M 72.957031 228.820312 C 72.960938 230.140625 72.996094 231.460938 73.0625 232.777344 C 73.128906 234.097656 73.230469 235.414062 73.363281 236.726562 C 73.492188 238.039062 73.660156 239.351562 73.855469 240.65625 C 74.050781 241.964844 74.277344 243.265625 74.539062 244.558594 C 74.800781 245.855469 75.089844 247.144531 75.414062 248.425781 C 75.738281 249.703125 76.09375 250.976562 76.476562 252.242188 C 76.863281 253.503906 77.28125 254.757812 77.726562 256.003906 C 78.175781 257.246094 78.652344 258.480469 79.160156 259.699219 C 79.667969 260.921875 80.207031 262.128906 80.773438 263.324219 C 81.339844 264.519531 81.933594 265.699219 82.558594 266.863281 C 83.183594 268.027344 83.835938 269.179688 84.519531 270.3125 C 85.199219 271.445312 85.90625 272.5625 86.644531 273.660156 C 87.378906 274.761719 88.140625 275.839844 88.929688 276.902344 C 89.71875 277.964844 90.53125 279.007812 91.371094 280.027344 C 92.210938 281.050781 93.074219 282.050781 93.964844 283.03125 C 94.851562 284.011719 95.765625 284.96875 96.699219 285.90625 C 97.636719 286.839844 98.59375 287.753906 99.574219 288.640625 C 100.554688 289.53125 101.554688 290.394531 102.574219 291.234375 C 103.597656 292.074219 104.640625 292.886719 105.703125 293.675781 C 106.765625 294.464844 107.84375 295.226562 108.945312 295.960938 C 110.042969 296.699219 111.160156 297.40625 112.292969 298.085938 C 113.425781 298.769531 114.578125 299.421875 115.742188 300.046875 C 116.90625 300.671875 118.085938 301.265625 119.28125 301.832031 C 120.476562 302.398438 121.683594 302.9375 122.90625 303.445312 C 124.125 303.953125 125.359375 304.429688 126.601562 304.878906 C 127.84375 305.324219 129.097656 305.742188 130.363281 306.125 C 131.628906 306.511719 132.898438 306.867188 134.179688 307.191406 C 135.460938 307.515625 136.75 307.804688 138.046875 308.066406 C 139.339844 308.324219 140.640625 308.554688 141.949219 308.75 C 143.253906 308.945312 144.566406 309.109375 145.878906 309.242188 C 147.191406 309.375 148.507812 309.476562 149.828125 309.542969 C 151.144531 309.609375 152.464844 309.644531 153.785156 309.648438 L 153.773438 305.863281 C 152.515625 305.859375 151.257812 305.828125 150 305.761719 C 148.746094 305.699219 147.492188 305.605469 146.238281 305.476562 C 144.984375 305.351562 143.738281 305.195312 142.492188 305.007812 C 141.246094 304.820312 140.007812 304.605469 138.773438 304.355469 C 137.539062 304.109375 136.3125 303.828125 135.089844 303.519531 C 133.871094 303.214844 132.65625 302.875 131.453125 302.507812 C 130.246094 302.140625 129.050781 301.742188 127.867188 301.316406 C 126.679688 300.890625 125.507812 300.433594 124.34375 299.953125 C 123.179688 299.46875 122.03125 298.957031 120.890625 298.414062 C 119.753906 297.875 118.628906 297.308594 117.515625 296.710938 C 116.40625 296.117188 115.3125 295.496094 114.230469 294.84375 C 113.148438 294.195312 112.085938 293.523438 111.039062 292.820312 C 109.992188 292.121094 108.960938 291.394531 107.949219 290.640625 C 106.9375 289.890625 105.945312 289.113281 104.96875 288.3125 C 103.996094 287.515625 103.042969 286.691406 102.105469 285.84375 C 101.171875 284.996094 100.261719 284.128906 99.367188 283.234375 C 98.476562 282.34375 97.609375 281.433594 96.761719 280.496094 C 95.914062 279.5625 95.089844 278.609375 94.292969 277.636719 C 93.492188 276.660156 92.714844 275.667969 91.964844 274.65625 C 91.210938 273.644531 90.484375 272.613281 89.785156 271.566406 C 89.082031 270.519531 88.410156 269.457031 87.757812 268.375 C 87.109375 267.292969 86.488281 266.199219 85.894531 265.089844 C 85.296875 263.976562 84.730469 262.851562 84.191406 261.714844 C 83.648438 260.574219 83.136719 259.425781 82.652344 258.261719 C 82.167969 257.097656 81.714844 255.925781 81.289062 254.738281 C 80.863281 253.554688 80.464844 252.359375 80.097656 251.152344 C 79.730469 249.949219 79.390625 248.734375 79.082031 247.515625 C 78.777344 246.292969 78.496094 245.066406 78.25 243.832031 C 78 242.597656 77.785156 241.355469 77.597656 240.113281 C 77.410156 238.867188 77.253906 237.617188 77.128906 236.367188 C 77 235.113281 76.90625 233.859375 76.84375 232.601562 C 76.777344 231.347656 76.746094 230.089844 76.742188 228.832031 C 76.738281 227.574219 76.765625 226.316406 76.828125 225.058594 C 76.886719 223.800781 76.976562 222.546875 77.097656 221.296875 C 77.214844 220.042969 77.367188 218.796875 77.550781 217.554688 C 77.730469 216.308594 77.945312 215.070312 78.1875 213.835938 C 78.429688 212.601562 78.703125 211.375 79.007812 210.15625 C 79.308594 208.9375 79.640625 207.726562 80.003906 206.523438 C 80.367188 205.320312 80.757812 204.125 81.179688 202.941406 C 81.601562 201.757812 82.050781 200.585938 82.53125 199.425781 C 83.011719 198.261719 83.515625 197.113281 84.054688 195.976562 C 84.589844 194.839844 85.152344 193.71875 85.742188 192.609375 C 86.332031 191.503906 86.949219 190.410156 87.59375 189.332031 C 88.238281 188.253906 88.910156 187.191406 89.605469 186.148438 C 90.304688 185.101562 91.027344 184.078125 91.773438 183.066406 C 92.519531 182.058594 93.292969 181.070312 94.089844 180.097656 C 94.886719 179.125 95.703125 178.175781 96.546875 177.246094 C 97.390625 176.316406 98.253906 175.40625 99.144531 174.519531 C 100.03125 173.628906 100.941406 172.765625 101.871094 171.921875 C 102.800781 171.078125 103.75 170.257812 104.722656 169.464844 C 105.695312 168.667969 106.683594 167.894531 107.691406 167.148438 C 108.703125 166.402344 109.726562 165.679688 110.773438 164.980469 C 111.816406 164.285156 112.878906 163.613281 113.957031 162.96875 C 115.035156 162.324219 116.128906 161.707031 117.234375 161.117188 C 118.34375 160.527344 119.464844 159.964844 120.601562 159.429688 C 121.738281 158.890625 122.886719 158.386719 124.050781 157.90625 C 125.210938 157.425781 126.382812 156.976562 127.566406 156.554688 C 128.75 156.132812 129.945312 155.742188 131.148438 155.378906 C 132.351562 155.015625 133.5625 154.683594 134.78125 154.378906 C 136 154.078125 137.226562 153.804688 138.460938 153.5625 C 139.695312 153.320312 140.933594 153.105469 142.179688 152.925781 C 143.421875 152.742188 144.671875 152.589844 145.921875 152.472656 C 147.171875 152.351562 148.429688 152.261719 149.683594 152.203125 C 150.941406 152.140625 152.199219 152.113281 153.457031 152.117188 L 174.796875 152.160156 L 174.789062 148.375 L 153.445312 148.332031 C 152.125 148.328125 150.804688 148.359375 149.488281 148.421875 C 148.167969 148.484375 146.855469 148.578125 145.539062 148.703125 C 144.226562 148.832031 142.917969 148.988281 141.613281 149.179688 C 140.308594 149.371094 139.007812 149.59375 137.714844 149.851562 C 136.417969 150.105469 135.132812 150.390625 133.851562 150.710938 C 132.574219 151.027344 131.300781 151.375 130.039062 151.757812 C 128.777344 152.136719 127.523438 152.550781 126.28125 152.992188 C 125.042969 153.433594 123.8125 153.90625 122.59375 154.410156 C 121.375 154.910156 120.167969 155.441406 118.976562 156.003906 C 117.785156 156.566406 116.605469 157.15625 115.445312 157.777344 C 114.28125 158.398438 113.136719 159.046875 112.003906 159.722656 C 110.875 160.398438 109.761719 161.101562 108.664062 161.832031 C 107.566406 162.5625 106.492188 163.320312 105.433594 164.105469 C 104.375 164.890625 103.335938 165.699219 102.316406 166.535156 C 101.296875 167.371094 100.300781 168.230469 99.324219 169.113281 C 98.347656 170 97.394531 170.90625 96.464844 171.835938 C 95.53125 172.769531 94.625 173.722656 93.738281 174.699219 C 92.855469 175.675781 91.996094 176.671875 91.160156 177.691406 C 90.324219 178.710938 89.515625 179.75 88.730469 180.808594 C 87.945312 181.867188 87.1875 182.941406 86.457031 184.039062 C 85.726562 185.136719 85.023438 186.25 84.347656 187.378906 C 83.671875 188.507812 83.023438 189.65625 82.402344 190.820312 C 81.78125 191.980469 81.191406 193.160156 80.628906 194.351562 C 80.070312 195.542969 79.535156 196.75 79.035156 197.96875 C 78.53125 199.1875 78.058594 200.414062 77.617188 201.65625 C 77.175781 202.898438 76.761719 204.152344 76.382812 205.414062 C 76 206.675781 75.652344 207.949219 75.335938 209.226562 C 75.015625 210.507812 74.730469 211.792969 74.476562 213.089844 C 74.21875 214.382812 73.996094 215.683594 73.804688 216.988281 C 73.617188 218.292969 73.457031 219.601562 73.328125 220.914062 C 73.203125 222.226562 73.109375 223.542969 73.046875 224.863281 C 72.984375 226.179688 72.953125 227.5 72.957031 228.820312 Z M 72.957031 228.820312 " clip-rule="nonzero"/></clipPath><linearGradient x1="-4011.400997" gradientTransform="matrix(0.499713, 0.00104406, 0.00104406, 0.499713, 2074.055655, -1575.454382)" y1="3456.604983" x2="-3758.998135" gradientUnits="userSpaceOnUse" y2="3737.051678" id="3d0584fa2c"><stop stop-opacity="1" stop-color="rgb(63.09967%, 0%, 92.89856%)" offset="0"/><stop stop-opacity="1" stop-color="rgb(63.09967%, 0%, 92.89856%)" offset="0.25"/><stop stop-opacity="1" stop-color="rgb(63.09967%, 0%, 92.89856%)" offset="0.363194"/><stop stop-opacity="1" stop-color="rgb(63.09967%, 0%, 92.89856%)" offset="0.375"/><stop stop-opacity="1" stop-color="rgb(63.09967%, 0%, 92.89856%)" offset="0.4375"/><stop stop-opacity="1" stop-color="rgb(62.986755%, 0.038147%, 92.910767%)" offset="0.46875"/><stop stop-opacity="1" stop-color="rgb(61.727905%, 0.4776%, 93.052673%)" offset="0.472656"/><stop stop-opacity="1" stop-color="rgb(60.58197%, 0.87738%, 93.182373%)" offset="0.476563"/><stop stop-opacity="1" stop-color="rgb(59.436035%, 1.275635%, 93.310547%)" offset="0.480469"/><stop stop-opacity="1" stop-color="rgb(58.2901%, 1.675415%, 93.440247%)" offset="0.484375"/><stop stop-opacity="1" stop-color="rgb(57.142639%, 2.075195%, 93.56842%)" offset="0.488281"/><stop stop-opacity="1" stop-color="rgb(55.996704%, 2.474976%, 93.69812%)" offset="0.492188"/><stop stop-opacity="1" stop-color="rgb(54.850769%, 2.874756%, 93.826294%)" offset="0.496094"/><stop stop-opacity="1" stop-color="rgb(53.704834%, 3.274536%, 93.955994%)" offset="0.5"/><stop stop-opacity="1" stop-color="rgb(52.557373%, 3.674316%, 94.084167%)" offset="0.503906"/><stop stop-opacity="1" stop-color="rgb(51.411438%, 4.074097%, 94.213867%)" offset="0.507813"/><stop stop-opacity="1" stop-color="rgb(50.263977%, 4.473877%, 94.342041%)" offset="0.511719"/><stop stop-opacity="1" stop-color="rgb(49.118042%, 4.873657%, 94.471741%)" offset="0.515625"/><stop stop-opacity="1" stop-color="rgb(47.972107%, 5.273438%, 94.599915%)" offset="0.519531"/><stop stop-opacity="1" stop-color="rgb(46.826172%, 5.673218%, 94.729614%)" offset="0.523438"/><stop stop-opacity="1" stop-color="rgb(45.678711%, 6.072998%, 94.859314%)" offset="0.527344"/><stop stop-opacity="1" stop-color="rgb(44.532776%, 6.472778%, 94.989014%)" offset="0.53125"/><stop stop-opacity="1" stop-color="rgb(43.386841%, 6.872559%, 95.117188%)" offset="0.535156"/><stop stop-opacity="1" stop-color="rgb(42.240906%, 7.272339%, 95.246887%)" offset="0.539063"/><stop stop-opacity="1" stop-color="rgb(41.093445%, 7.670593%, 95.375061%)" offset="0.542969"/><stop stop-opacity="1" stop-color="rgb(39.94751%, 8.070374%, 95.504761%)" offset="0.546875"/><stop stop-opacity="1" stop-color="rgb(38.801575%, 8.470154%, 95.632935%)" offset="0.550781"/><stop stop-opacity="1" stop-color="rgb(37.65564%, 8.869934%, 95.762634%)" offset="0.554688"/><stop stop-opacity="1" stop-color="rgb(36.508179%, 9.269714%, 95.890808%)" offset="0.558594"/><stop stop-opacity="1" stop-color="rgb(35.362244%, 9.669495%, 96.020508%)" offset="0.5625"/><stop stop-opacity="1" stop-color="rgb(34.214783%, 10.069275%, 96.148682%)" offset="0.566406"/><stop stop-opacity="1" stop-color="rgb(33.068848%, 10.469055%, 96.278381%)" offset="0.570313"/><stop stop-opacity="1" stop-color="rgb(31.922913%, 10.868835%, 96.406555%)" offset="0.574219"/><stop stop-opacity="1" stop-color="rgb(30.776978%, 11.268616%, 96.536255%)" offset="0.578125"/><stop stop-opacity="1" stop-color="rgb(29.629517%, 11.668396%, 96.664429%)" offset="0.582031"/><stop stop-opacity="1" stop-color="rgb(28.483582%, 12.068176%, 96.794128%)" offset="0.585938"/><stop stop-opacity="1" stop-color="rgb(27.337646%, 12.467957%, 96.922302%)" offset="0.589844"/><stop stop-opacity="1" stop-color="rgb(26.191711%, 12.867737%, 97.052002%)" offset="0.59375"/><stop stop-opacity="1" stop-color="rgb(25.04425%, 13.267517%, 97.180176%)" offset="0.597656"/><stop stop-opacity="1" stop-color="rgb(23.898315%, 13.667297%, 97.309875%)" offset="0.601562"/><stop stop-opacity="1" stop-color="rgb(22.75238%, 14.065552%, 97.438049%)" offset="0.605469"/><stop stop-opacity="1" stop-color="rgb(21.606445%, 14.465332%, 97.567749%)" offset="0.609375"/><stop stop-opacity="1" stop-color="rgb(20.458984%, 14.865112%, 97.695923%)" offset="0.613281"/><stop stop-opacity="1" stop-color="rgb(19.313049%, 15.264893%, 97.825623%)" offset="0.617188"/><stop stop-opacity="1" stop-color="rgb(18.165588%, 15.664673%, 97.953796%)" offset="0.621094"/><stop stop-opacity="1" stop-color="rgb(17.019653%, 16.064453%, 98.083496%)" offset="0.625"/><stop stop-opacity="1" stop-color="rgb(15.873718%, 16.464233%, 98.21167%)" offset="0.628906"/><stop stop-opacity="1" stop-color="rgb(14.727783%, 16.864014%, 98.34137%)" offset="0.632813"/><stop stop-opacity="1" stop-color="rgb(13.580322%, 17.263794%, 98.469543%)" offset="0.636719"/><stop stop-opacity="1" stop-color="rgb(12.434387%, 17.663574%, 98.599243%)" offset="0.640625"/><stop stop-opacity="1" stop-color="rgb(11.288452%, 18.063354%, 98.728943%)" offset="0.644531"/><stop stop-opacity="1" stop-color="rgb(10.142517%, 18.463135%, 98.858643%)" offset="0.648438"/><stop stop-opacity="1" stop-color="rgb(8.995056%, 18.862915%, 98.986816%)" offset="0.652344"/><stop stop-opacity="1" stop-color="rgb(7.849121%, 19.262695%, 99.116516%)" offset="0.65625"/><stop stop-opacity="1" stop-color="rgb(6.703186%, 19.662476%, 99.24469%)" offset="0.660156"/><stop stop-opacity="1" stop-color="rgb(5.557251%, 20.062256%, 99.37439%)" offset="0.664062"/><stop stop-opacity="1" stop-color="rgb(4.40979%, 20.46051%, 99.502563%)" offset="0.667969"/><stop stop-opacity="1" stop-color="rgb(3.263855%, 20.860291%, 99.632263%)" offset="0.671875"/><stop stop-opacity="1" stop-color="rgb(2.116394%, 21.260071%, 99.760437%)" offset="0.675781"/><stop stop-opacity="1" stop-color="rgb(0.970459%, 21.659851%, 99.890137%)" offset="0.679688"/><stop stop-opacity="1" stop-color="rgb(0.485229%, 21.829224%, 99.945068%)" offset="0.683594"/><stop stop-opacity="1" stop-color="rgb(0%, 21.998596%, 100%)" offset="0.6875"/><stop stop-opacity="1" stop-color="rgb(0%, 21.998596%, 100%)" offset="0.75"/><stop stop-opacity="1" stop-color="rgb(0%, 21.998596%, 100%)" offset="1"/></linearGradient><clipPath id="f164e4b7dd"><path d="M 229 148 L 316 148 L 316 210 L 229 210 Z M 229 148 " clip-rule="nonzero"/></clipPath><clipPath id="5add8b8089"><path d="M 261.835938 241.023438 L 199.457031 178.644531 L 258.445312 119.65625 L 320.824219 182.035156 Z M 261.835938 241.023438 " clip-rule="nonzero"/></clipPath><clipPath id="354fa2d549"><path d="M 261.835938 241.023438 L 199.457031 178.644531 L 258.445312 119.65625 L 320.824219 182.035156 Z M 261.835938 241.023438 " clip-rule="nonzero"/></clipPath><clipPath id="b91a665d2d"><path d="M 275.566406 186.25 L 229.878906 186.296875 L 229.882812 190.09375 L 275.566406 190.042969 Z M 229.871094 152.117188 L 261.9375 152.082031 L 261.941406 148.289062 L 229.871094 148.324219 Z M 229.890625 161.597656 L 284.050781 161.539062 L 284.054688 157.746094 L 229.886719 157.800781 Z M 229.886719 205.285156 L 229.886719 209.078125 L 291.148438 209.011719 L 291.167969 205.234375 Z M 229.871094 199.601562 L 303.246094 199.519531 L 303.246094 195.726562 L 229.882812 195.792969 Z M 229.863281 171.113281 L 300.335938 171.027344 L 300.339844 167.242188 L 229.878906 167.308594 Z M 229.882812 180.59375 L 315.496094 180.507812 L 315.503906 176.714844 L 229.882812 176.804688 Z M 229.882812 180.59375 " clip-rule="nonzero"/></clipPath><linearGradient x1="-3630.199331" gradientTransform="matrix(0.500616, -0.000514655, -0.000514655, 0.500616, 2048.822455, -1432.910686)" y1="3215.53" x2="-3459.001507" gradientUnits="userSpaceOnUse" y2="3215.53" id="ce2d03e2a5"><stop stop-opacity="1" stop-color="rgb(54.899597%, 0%, 92.89856%)" offset="0"/><stop stop-opacity="1" stop-color="rgb(55.038452%, 0.344849%, 92.875671%)" offset="0.00390625"/><stop stop-opacity="1" stop-color="rgb(55.177307%, 0.691223%, 92.854309%)" offset="0.0078125"/><stop stop-opacity="1" stop-color="rgb(55.317688%, 1.042175%, 92.831421%)" offset="0.0117187"/><stop stop-opacity="1" stop-color="rgb(55.459595%, 1.393127%, 92.808533%)" offset="0.015625"/><stop stop-opacity="1" stop-color="rgb(55.599976%, 1.74408%, 92.785645%)" offset="0.0195312"/><stop stop-opacity="1" stop-color="rgb(55.741882%, 2.095032%, 92.764282%)" offset="0.0234375"/><stop stop-opacity="1" stop-color="rgb(55.882263%, 2.445984%, 92.741394%)" offset="0.0273438"/><stop stop-opacity="1" stop-color="rgb(56.02417%, 2.796936%, 92.718506%)" offset="0.03125"/><stop stop-opacity="1" stop-color="rgb(56.164551%, 3.147888%, 92.695618%)" offset="0.0351562"/><stop stop-opacity="1" stop-color="rgb(56.306458%, 3.49884%, 92.672729%)" offset="0.0390625"/><stop stop-opacity="1" stop-color="rgb(56.446838%, 3.849792%, 92.649841%)" offset="0.0429687"/><stop stop-opacity="1" stop-color="rgb(56.588745%, 4.200745%, 92.628479%)" offset="0.046875"/><stop stop-opacity="1" stop-color="rgb(56.729126%, 4.551697%, 92.605591%)" offset="0.0507812"/><stop stop-opacity="1" stop-color="rgb(56.871033%, 4.902649%, 92.582703%)" offset="0.0546875"/><stop stop-opacity="1" stop-color="rgb(57.011414%, 5.253601%, 92.559814%)" offset="0.0585937"/><stop stop-opacity="1" stop-color="rgb(57.15332%, 5.604553%, 92.536926%)" offset="0.0625"/><stop stop-opacity="1" stop-color="rgb(57.293701%, 5.955505%, 92.514038%)" offset="0.0664062"/><stop stop-opacity="1" stop-color="rgb(57.435608%, 6.306458%, 92.49115%)" offset="0.0703125"/><stop stop-opacity="1" stop-color="rgb(57.575989%, 6.65741%, 92.468262%)" offset="0.0742187"/><stop stop-opacity="1" stop-color="rgb(57.71637%, 7.008362%, 92.446899%)" offset="0.078125"/><stop stop-opacity="1" stop-color="rgb(57.85675%, 7.359314%, 92.424011%)" offset="0.0820312"/><stop stop-opacity="1" stop-color="rgb(57.998657%, 7.710266%, 92.401123%)" offset="0.0859375"/><stop stop-opacity="1" stop-color="rgb(58.139038%, 8.061218%, 92.378235%)" offset="0.0898437"/><stop stop-opacity="1" stop-color="rgb(58.280945%, 8.41217%, 92.355347%)" offset="0.09375"/><stop stop-opacity="1" stop-color="rgb(58.421326%, 8.763123%, 92.332458%)" offset="0.0976562"/><stop stop-opacity="1" stop-color="rgb(58.563232%, 9.114075%, 92.311096%)" offset="0.101562"/><stop stop-opacity="1" stop-color="rgb(58.703613%, 9.465027%, 92.288208%)" offset="0.105469"/><stop stop-opacity="1" stop-color="rgb(58.84552%, 9.815979%, 92.26532%)" offset="0.109375"/><stop stop-opacity="1" stop-color="rgb(58.985901%, 10.166931%, 92.242432%)" offset="0.113281"/><stop stop-opacity="1" stop-color="rgb(59.127808%, 10.517883%, 92.219543%)" offset="0.117187"/><stop stop-opacity="1" stop-color="rgb(59.268188%, 10.868835%, 92.196655%)" offset="0.121094"/><stop stop-opacity="1" stop-color="rgb(59.410095%, 11.219788%, 92.173767%)" offset="0.125"/><stop stop-opacity="1" stop-color="rgb(59.550476%, 11.57074%, 92.150879%)" offset="0.128906"/><stop stop-opacity="1" stop-color="rgb(59.692383%, 11.921692%, 92.129517%)" offset="0.132812"/><stop stop-opacity="1" stop-color="rgb(59.832764%, 12.272644%, 92.106628%)" offset="0.136719"/><stop stop-opacity="1" stop-color="rgb(59.97467%, 12.625122%, 92.08374%)" offset="0.140625"/><stop stop-opacity="1" stop-color="rgb(60.115051%, 12.976074%, 92.060852%)" offset="0.144531"/><stop stop-opacity="1" stop-color="rgb(60.256958%, 13.327026%, 92.037964%)" offset="0.148437"/><stop stop-opacity="1" stop-color="rgb(60.397339%, 13.677979%, 92.015076%)" offset="0.152344"/><stop stop-opacity="1" stop-color="rgb(60.539246%, 14.028931%, 91.993713%)" offset="0.15625"/><stop stop-opacity="1" stop-color="rgb(60.679626%, 14.379883%, 91.970825%)" offset="0.160156"/><stop stop-opacity="1" stop-color="rgb(60.821533%, 14.730835%, 91.947937%)" offset="0.164062"/><stop stop-opacity="1" stop-color="rgb(60.961914%, 15.081787%, 91.925049%)" offset="0.167969"/><stop stop-opacity="1" stop-color="rgb(61.103821%, 15.432739%, 91.902161%)" offset="0.171875"/><stop stop-opacity="1" stop-color="rgb(61.244202%, 15.783691%, 91.879272%)" offset="0.175781"/><stop stop-opacity="1" stop-color="rgb(61.386108%, 16.134644%, 91.856384%)" offset="0.179688"/><stop stop-opacity="1" stop-color="rgb(61.526489%, 16.485596%, 91.833496%)" offset="0.183594"/><stop stop-opacity="1" stop-color="rgb(61.668396%, 16.836548%, 91.812134%)" offset="0.1875"/><stop stop-opacity="1" stop-color="rgb(61.808777%, 17.1875%, 91.789246%)" offset="0.191406"/><stop stop-opacity="1" stop-color="rgb(61.950684%, 17.538452%, 91.766357%)" offset="0.195312"/><stop stop-opacity="1" stop-color="rgb(62.091064%, 17.889404%, 91.743469%)" offset="0.199219"/><stop stop-opacity="1" stop-color="rgb(62.231445%, 18.240356%, 91.720581%)" offset="0.203125"/><stop stop-opacity="1" stop-color="rgb(62.371826%, 18.591309%, 91.697693%)" offset="0.207031"/><stop stop-opacity="1" stop-color="rgb(62.513733%, 18.942261%, 91.676331%)" offset="0.210937"/><stop stop-opacity="1" stop-color="rgb(62.654114%, 19.293213%, 91.653442%)" offset="0.214844"/><stop stop-opacity="1" stop-color="rgb(62.796021%, 19.644165%, 91.630554%)" offset="0.21875"/><stop stop-opacity="1" stop-color="rgb(62.936401%, 19.995117%, 91.607666%)" offset="0.222656"/><stop stop-opacity="1" stop-color="rgb(63.078308%, 20.346069%, 91.584778%)" offset="0.226562"/><stop stop-opacity="1" stop-color="rgb(63.218689%, 20.697021%, 91.56189%)" offset="0.230469"/><stop stop-opacity="1" stop-color="rgb(63.360596%, 21.047974%, 91.539001%)" offset="0.234375"/><stop stop-opacity="1" stop-color="rgb(63.500977%, 21.398926%, 91.516113%)" offset="0.238281"/><stop stop-opacity="1" stop-color="rgb(63.642883%, 21.749878%, 91.494751%)" offset="0.242187"/><stop stop-opacity="1" stop-color="rgb(63.783264%, 22.10083%, 91.471863%)" offset="0.246094"/><stop stop-opacity="1" stop-color="rgb(63.925171%, 22.451782%, 91.448975%)" offset="0.25"/><stop stop-opacity="1" stop-color="rgb(64.065552%, 22.802734%, 91.426086%)" offset="0.253906"/><stop stop-opacity="1" stop-color="rgb(64.207458%, 23.153687%, 91.403198%)" offset="0.257812"/><stop stop-opacity="1" stop-color="rgb(64.347839%, 23.504639%, 91.38031%)" offset="0.261719"/><stop stop-opacity="1" stop-color="rgb(64.489746%, 23.855591%, 91.358948%)" offset="0.265625"/><stop stop-opacity="1" stop-color="rgb(64.630127%, 24.206543%, 91.33606%)" offset="0.269531"/><stop stop-opacity="1" stop-color="rgb(64.772034%, 24.557495%, 91.313171%)" offset="0.273437"/><stop stop-opacity="1" stop-color="rgb(64.912415%, 24.908447%, 91.290283%)" offset="0.277344"/><stop stop-opacity="1" stop-color="rgb(65.054321%, 25.259399%, 91.267395%)" offset="0.28125"/><stop stop-opacity="1" stop-color="rgb(65.194702%, 25.610352%, 91.244507%)" offset="0.285156"/><stop stop-opacity="1" stop-color="rgb(65.336609%, 25.961304%, 91.221619%)" offset="0.289062"/><stop stop-opacity="1" stop-color="rgb(65.47699%, 26.312256%, 91.19873%)" offset="0.292969"/><stop stop-opacity="1" stop-color="rgb(65.618896%, 26.663208%, 91.177368%)" offset="0.296875"/><stop stop-opacity="1" stop-color="rgb(65.759277%, 27.01416%, 91.15448%)" offset="0.300781"/><stop stop-opacity="1" stop-color="rgb(65.901184%, 27.365112%, 91.131592%)" offset="0.304687"/><stop stop-opacity="1" stop-color="rgb(66.041565%, 27.716064%, 91.108704%)" offset="0.308594"/><stop stop-opacity="1" stop-color="rgb(66.183472%, 28.067017%, 91.085815%)" offset="0.3125"/><stop stop-opacity="1" stop-color="rgb(66.323853%, 28.417969%, 91.062927%)" offset="0.316406"/><stop stop-opacity="1" stop-color="rgb(66.465759%, 28.768921%, 91.041565%)" offset="0.320312"/><stop stop-opacity="1" stop-color="rgb(66.60614%, 29.119873%, 91.018677%)" offset="0.324219"/><stop stop-opacity="1" stop-color="rgb(66.746521%, 29.470825%, 90.995789%)" offset="0.328125"/><stop stop-opacity="1" stop-color="rgb(66.886902%, 29.821777%, 90.9729%)" offset="0.332031"/><stop stop-opacity="1" stop-color="rgb(67.028809%, 30.174255%, 90.950012%)" offset="0.335937"/><stop stop-opacity="1" stop-color="rgb(67.169189%, 30.525208%, 90.927124%)" offset="0.339844"/><stop stop-opacity="1" stop-color="rgb(67.311096%, 30.87616%, 90.905762%)" offset="0.34375"/><stop stop-opacity="1" stop-color="rgb(67.451477%, 31.227112%, 90.882874%)" offset="0.347656"/><stop stop-opacity="1" stop-color="rgb(67.593384%, 31.578064%, 90.859985%)" offset="0.351562"/><stop stop-opacity="1" stop-color="rgb(67.733765%, 31.929016%, 90.837097%)" offset="0.355469"/><stop stop-opacity="1" stop-color="rgb(67.875671%, 32.279968%, 90.814209%)" offset="0.359375"/><stop stop-opacity="1" stop-color="rgb(68.016052%, 32.63092%, 90.791321%)" offset="0.363281"/><stop stop-opacity="1" stop-color="rgb(68.157959%, 32.981873%, 90.768433%)" offset="0.367187"/><stop stop-opacity="1" stop-color="rgb(68.29834%, 33.332825%, 90.745544%)" offset="0.371094"/><stop stop-opacity="1" stop-color="rgb(68.440247%, 33.683777%, 90.724182%)" offset="0.375"/><stop stop-opacity="1" stop-color="rgb(68.580627%, 34.034729%, 90.701294%)" offset="0.378906"/><stop stop-opacity="1" stop-color="rgb(68.722534%, 34.385681%, 90.678406%)" offset="0.382812"/><stop stop-opacity="1" stop-color="rgb(68.862915%, 34.736633%, 90.655518%)" offset="0.386719"/><stop stop-opacity="1" stop-color="rgb(69.004822%, 35.087585%, 90.632629%)" offset="0.390625"/><stop stop-opacity="1" stop-color="rgb(69.145203%, 35.438538%, 90.609741%)" offset="0.394531"/><stop stop-opacity="1" stop-color="rgb(69.287109%, 35.78949%, 90.588379%)" offset="0.398437"/><stop stop-opacity="1" stop-color="rgb(69.42749%, 36.140442%, 90.565491%)" offset="0.402344"/><stop stop-opacity="1" stop-color="rgb(69.569397%, 36.491394%, 90.542603%)" offset="0.40625"/><stop stop-opacity="1" stop-color="rgb(69.709778%, 36.842346%, 90.519714%)" offset="0.410156"/><stop stop-opacity="1" stop-color="rgb(69.851685%, 37.193298%, 90.496826%)" offset="0.414062"/><stop stop-opacity="1" stop-color="rgb(69.992065%, 37.54425%, 90.473938%)" offset="0.417969"/><stop stop-opacity="1" stop-color="rgb(70.133972%, 37.895203%, 90.45105%)" offset="0.421875"/><stop stop-opacity="1" stop-color="rgb(70.274353%, 38.246155%, 90.428162%)" offset="0.425781"/><stop stop-opacity="1" stop-color="rgb(70.41626%, 38.597107%, 90.406799%)" offset="0.429687"/><stop stop-opacity="1" stop-color="rgb(70.556641%, 38.948059%, 90.383911%)" offset="0.433594"/><stop stop-opacity="1" stop-color="rgb(70.698547%, 39.299011%, 90.361023%)" offset="0.4375"/><stop stop-opacity="1" stop-color="rgb(70.838928%, 39.649963%, 90.338135%)" offset="0.441406"/><stop stop-opacity="1" stop-color="rgb(70.980835%, 40.000916%, 90.315247%)" offset="0.445312"/><stop stop-opacity="1" stop-color="rgb(71.121216%, 40.351868%, 90.292358%)" offset="0.449219"/><stop stop-opacity="1" stop-color="rgb(71.261597%, 40.70282%, 90.270996%)" offset="0.453125"/><stop stop-opacity="1" stop-color="rgb(71.401978%, 41.053772%, 90.248108%)" offset="0.457031"/><stop stop-opacity="1" stop-color="rgb(71.543884%, 41.404724%, 90.22522%)" offset="0.460937"/><stop stop-opacity="1" stop-color="rgb(71.684265%, 41.755676%, 90.202332%)" offset="0.464844"/><stop stop-opacity="1" stop-color="rgb(71.826172%, 42.106628%, 90.179443%)" offset="0.46875"/><stop stop-opacity="1" stop-color="rgb(71.966553%, 42.457581%, 90.156555%)" offset="0.472656"/><stop stop-opacity="1" stop-color="rgb(72.108459%, 42.808533%, 90.133667%)" offset="0.476562"/><stop stop-opacity="1" stop-color="rgb(72.24884%, 43.159485%, 90.110779%)" offset="0.480469"/><stop stop-opacity="1" stop-color="rgb(72.390747%, 43.510437%, 90.089417%)" offset="0.484375"/><stop stop-opacity="1" stop-color="rgb(72.531128%, 43.861389%, 90.066528%)" offset="0.488281"/><stop stop-opacity="1" stop-color="rgb(72.673035%, 44.212341%, 90.04364%)" offset="0.492187"/><stop stop-opacity="1" stop-color="rgb(72.813416%, 44.563293%, 90.020752%)" offset="0.496094"/><stop stop-opacity="1" stop-color="rgb(72.955322%, 44.914246%, 89.997864%)" offset="0.5"/><stop stop-opacity="1" stop-color="rgb(73.095703%, 45.265198%, 89.974976%)" offset="0.503906"/><stop stop-opacity="1" stop-color="rgb(73.23761%, 45.61615%, 89.953613%)" offset="0.507813"/><stop stop-opacity="1" stop-color="rgb(73.377991%, 45.967102%, 89.930725%)" offset="0.511719"/><stop stop-opacity="1" stop-color="rgb(73.519897%, 46.318054%, 89.907837%)" offset="0.515625"/><stop stop-opacity="1" stop-color="rgb(73.660278%, 46.669006%, 89.884949%)" offset="0.519531"/><stop stop-opacity="1" stop-color="rgb(73.802185%, 47.019958%, 89.862061%)" offset="0.523438"/><stop stop-opacity="1" stop-color="rgb(73.942566%, 47.370911%, 89.839172%)" offset="0.527344"/><stop stop-opacity="1" stop-color="rgb(74.084473%, 47.721863%, 89.816284%)" offset="0.53125"/><stop stop-opacity="1" stop-color="rgb(74.224854%, 48.072815%, 89.793396%)" offset="0.535156"/><stop stop-opacity="1" stop-color="rgb(74.36676%, 48.425293%, 89.772034%)" offset="0.539062"/><stop stop-opacity="1" stop-color="rgb(74.507141%, 48.776245%, 89.749146%)" offset="0.542969"/><stop stop-opacity="1" stop-color="rgb(74.649048%, 49.127197%, 89.726257%)" offset="0.546875"/><stop stop-opacity="1" stop-color="rgb(74.789429%, 49.478149%, 89.703369%)" offset="0.550781"/><stop stop-opacity="1" stop-color="rgb(74.931335%, 49.829102%, 89.680481%)" offset="0.554688"/><stop stop-opacity="1" stop-color="rgb(75.071716%, 50.180054%, 89.657593%)" offset="0.558594"/><stop stop-opacity="1" stop-color="rgb(75.213623%, 50.531006%, 89.63623%)" offset="0.5625"/><stop stop-opacity="1" stop-color="rgb(75.354004%, 50.881958%, 89.613342%)" offset="0.566406"/><stop stop-opacity="1" stop-color="rgb(75.495911%, 51.23291%, 89.590454%)" offset="0.570312"/><stop stop-opacity="1" stop-color="rgb(75.636292%, 51.583862%, 89.567566%)" offset="0.574219"/><stop stop-opacity="1" stop-color="rgb(75.776672%, 51.934814%, 89.544678%)" offset="0.578125"/><stop stop-opacity="1" stop-color="rgb(75.917053%, 52.285767%, 89.52179%)" offset="0.582031"/><stop stop-opacity="1" stop-color="rgb(76.05896%, 52.636719%, 89.498901%)" offset="0.585938"/><stop stop-opacity="1" stop-color="rgb(76.199341%, 52.987671%, 89.476013%)" offset="0.589844"/><stop stop-opacity="1" stop-color="rgb(76.341248%, 53.338623%, 89.454651%)" offset="0.59375"/><stop stop-opacity="1" stop-color="rgb(76.481628%, 53.689575%, 89.431763%)" offset="0.597656"/><stop stop-opacity="1" stop-color="rgb(76.623535%, 54.040527%, 89.408875%)" offset="0.601562"/><stop stop-opacity="1" stop-color="rgb(76.763916%, 54.391479%, 89.385986%)" offset="0.605469"/><stop stop-opacity="1" stop-color="rgb(76.905823%, 54.742432%, 89.363098%)" offset="0.609375"/><stop stop-opacity="1" stop-color="rgb(77.046204%, 55.093384%, 89.34021%)" offset="0.613281"/><stop stop-opacity="1" stop-color="rgb(77.18811%, 55.444336%, 89.318848%)" offset="0.617188"/><stop stop-opacity="1" stop-color="rgb(77.328491%, 55.795288%, 89.295959%)" offset="0.621094"/><stop stop-opacity="1" stop-color="rgb(77.470398%, 56.14624%, 89.273071%)" offset="0.625"/><stop stop-opacity="1" stop-color="rgb(77.610779%, 56.497192%, 89.250183%)" offset="0.628906"/><stop stop-opacity="1" stop-color="rgb(77.752686%, 56.848145%, 89.227295%)" offset="0.632812"/><stop stop-opacity="1" stop-color="rgb(77.893066%, 57.199097%, 89.204407%)" offset="0.636719"/><stop stop-opacity="1" stop-color="rgb(78.034973%, 57.550049%, 89.181519%)" offset="0.640625"/><stop stop-opacity="1" stop-color="rgb(78.175354%, 57.901001%, 89.15863%)" offset="0.644531"/><stop stop-opacity="1" stop-color="rgb(78.317261%, 58.251953%, 89.137268%)" offset="0.648438"/><stop stop-opacity="1" stop-color="rgb(78.457642%, 58.602905%, 89.11438%)" offset="0.652344"/><stop stop-opacity="1" stop-color="rgb(78.599548%, 58.953857%, 89.091492%)" offset="0.65625"/><stop stop-opacity="1" stop-color="rgb(78.739929%, 59.30481%, 89.068604%)" offset="0.660156"/><stop stop-opacity="1" stop-color="rgb(78.881836%, 59.655762%, 89.045715%)" offset="0.664062"/><stop stop-opacity="1" stop-color="rgb(79.022217%, 60.006714%, 89.022827%)" offset="0.667969"/><stop stop-opacity="1" stop-color="rgb(79.164124%, 60.357666%, 89.001465%)" offset="0.671875"/><stop stop-opacity="1" stop-color="rgb(79.304504%, 60.708618%, 88.978577%)" offset="0.675781"/><stop stop-opacity="1" stop-color="rgb(79.446411%, 61.05957%, 88.955688%)" offset="0.679687"/><stop stop-opacity="1" stop-color="rgb(79.586792%, 61.410522%, 88.9328%)" offset="0.683594"/><stop stop-opacity="1" stop-color="rgb(79.728699%, 61.761475%, 88.909912%)" offset="0.6875"/><stop stop-opacity="1" stop-color="rgb(79.86908%, 62.112427%, 88.887024%)" offset="0.691406"/><stop stop-opacity="1" stop-color="rgb(80.010986%, 62.463379%, 88.864136%)" offset="0.695312"/><stop stop-opacity="1" stop-color="rgb(80.151367%, 62.814331%, 88.841248%)" offset="0.699219"/><stop stop-opacity="1" stop-color="rgb(80.291748%, 63.165283%, 88.819885%)" offset="0.703125"/><stop stop-opacity="1" stop-color="rgb(80.432129%, 63.516235%, 88.796997%)" offset="0.707031"/><stop stop-opacity="1" stop-color="rgb(80.574036%, 63.867188%, 88.774109%)" offset="0.710938"/><stop stop-opacity="1" stop-color="rgb(80.714417%, 64.21814%, 88.751221%)" offset="0.714844"/><stop stop-opacity="1" stop-color="rgb(80.856323%, 64.569092%, 88.728333%)" offset="0.71875"/><stop stop-opacity="1" stop-color="rgb(80.996704%, 64.920044%, 88.705444%)" offset="0.722656"/><stop stop-opacity="1" stop-color="rgb(81.138611%, 65.270996%, 88.684082%)" offset="0.726562"/><stop stop-opacity="1" stop-color="rgb(81.278992%, 65.621948%, 88.661194%)" offset="0.730469"/><stop stop-opacity="1" stop-color="rgb(81.420898%, 65.974426%, 88.638306%)" offset="0.734375"/><stop stop-opacity="1" stop-color="rgb(81.561279%, 66.325378%, 88.615417%)" offset="0.738281"/><stop stop-opacity="1" stop-color="rgb(81.703186%, 66.676331%, 88.592529%)" offset="0.742188"/><stop stop-opacity="1" stop-color="rgb(81.843567%, 67.027283%, 88.569641%)" offset="0.746094"/><stop stop-opacity="1" stop-color="rgb(81.985474%, 67.378235%, 88.546753%)" offset="0.75"/><stop stop-opacity="1" stop-color="rgb(82.125854%, 67.729187%, 88.523865%)" offset="0.753906"/><stop stop-opacity="1" stop-color="rgb(82.267761%, 68.080139%, 88.502502%)" offset="0.757812"/><stop stop-opacity="1" stop-color="rgb(82.408142%, 68.431091%, 88.479614%)" offset="0.761719"/><stop stop-opacity="1" stop-color="rgb(82.550049%, 68.782043%, 88.456726%)" offset="0.765625"/><stop stop-opacity="1" stop-color="rgb(82.69043%, 69.132996%, 88.433838%)" offset="0.769531"/><stop stop-opacity="1" stop-color="rgb(82.832336%, 69.483948%, 88.41095%)" offset="0.773438"/><stop stop-opacity="1" stop-color="rgb(82.972717%, 69.8349%, 88.388062%)" offset="0.777344"/><stop stop-opacity="1" stop-color="rgb(83.114624%, 70.185852%, 88.366699%)" offset="0.78125"/><stop stop-opacity="1" stop-color="rgb(83.255005%, 70.536804%, 88.343811%)" offset="0.785156"/><stop stop-opacity="1" stop-color="rgb(83.396912%, 70.887756%, 88.320923%)" offset="0.789062"/><stop stop-opacity="1" stop-color="rgb(83.537292%, 71.238708%, 88.298035%)" offset="0.792969"/><stop stop-opacity="1" stop-color="rgb(83.679199%, 71.589661%, 88.275146%)" offset="0.796875"/><stop stop-opacity="1" stop-color="rgb(83.81958%, 71.940613%, 88.252258%)" offset="0.800781"/><stop stop-opacity="1" stop-color="rgb(83.961487%, 72.291565%, 88.22937%)" offset="0.804688"/><stop stop-opacity="1" stop-color="rgb(84.101868%, 72.642517%, 88.206482%)" offset="0.808594"/><stop stop-opacity="1" stop-color="rgb(84.243774%, 72.993469%, 88.18512%)" offset="0.8125"/><stop stop-opacity="1" stop-color="rgb(84.384155%, 73.344421%, 88.162231%)" offset="0.816406"/><stop stop-opacity="1" stop-color="rgb(84.526062%, 73.695374%, 88.139343%)" offset="0.820312"/><stop stop-opacity="1" stop-color="rgb(84.666443%, 74.046326%, 88.116455%)" offset="0.824219"/><stop stop-opacity="1" stop-color="rgb(84.806824%, 74.397278%, 88.093567%)" offset="0.828125"/><stop stop-opacity="1" stop-color="rgb(84.947205%, 74.74823%, 88.070679%)" offset="0.832031"/><stop stop-opacity="1" stop-color="rgb(85.089111%, 75.099182%, 88.049316%)" offset="0.835938"/><stop stop-opacity="1" stop-color="rgb(85.229492%, 75.450134%, 88.026428%)" offset="0.839844"/><stop stop-opacity="1" stop-color="rgb(85.371399%, 75.801086%, 88.00354%)" offset="0.84375"/><stop stop-opacity="1" stop-color="rgb(85.51178%, 76.152039%, 87.980652%)" offset="0.847656"/><stop stop-opacity="1" stop-color="rgb(85.653687%, 76.502991%, 87.957764%)" offset="0.851562"/><stop stop-opacity="1" stop-color="rgb(85.794067%, 76.853943%, 87.934875%)" offset="0.855469"/><stop stop-opacity="1" stop-color="rgb(85.935974%, 77.204895%, 87.911987%)" offset="0.859375"/><stop stop-opacity="1" stop-color="rgb(86.076355%, 77.555847%, 87.889099%)" offset="0.863281"/><stop stop-opacity="1" stop-color="rgb(86.218262%, 77.906799%, 87.867737%)" offset="0.867187"/><stop stop-opacity="1" stop-color="rgb(86.358643%, 78.257751%, 87.844849%)" offset="0.871094"/><stop stop-opacity="1" stop-color="rgb(86.500549%, 78.608704%, 87.82196%)" offset="0.875"/><stop stop-opacity="1" stop-color="rgb(86.64093%, 78.959656%, 87.799072%)" offset="0.878906"/><stop stop-opacity="1" stop-color="rgb(86.782837%, 79.310608%, 87.776184%)" offset="0.882812"/><stop stop-opacity="1" stop-color="rgb(86.923218%, 79.66156%, 87.753296%)" offset="0.886719"/><stop stop-opacity="1" stop-color="rgb(87.065125%, 80.012512%, 87.731934%)" offset="0.890625"/><stop stop-opacity="1" stop-color="rgb(87.205505%, 80.363464%, 87.709045%)" offset="0.894531"/><stop stop-opacity="1" stop-color="rgb(87.347412%, 80.714417%, 87.686157%)" offset="0.898437"/><stop stop-opacity="1" stop-color="rgb(87.487793%, 81.065369%, 87.663269%)" offset="0.902344"/><stop stop-opacity="1" stop-color="rgb(87.6297%, 81.416321%, 87.640381%)" offset="0.90625"/><stop stop-opacity="1" stop-color="rgb(87.770081%, 81.767273%, 87.617493%)" offset="0.910156"/><stop stop-opacity="1" stop-color="rgb(87.911987%, 82.118225%, 87.594604%)" offset="0.914062"/><stop stop-opacity="1" stop-color="rgb(88.052368%, 82.469177%, 87.571716%)" offset="0.917969"/><stop stop-opacity="1" stop-color="rgb(88.194275%, 82.820129%, 87.550354%)" offset="0.921875"/><stop stop-opacity="1" stop-color="rgb(88.334656%, 83.171082%, 87.527466%)" offset="0.925781"/><stop stop-opacity="1" stop-color="rgb(88.476562%, 83.52356%, 87.504578%)" offset="0.929688"/><stop stop-opacity="1" stop-color="rgb(88.616943%, 83.874512%, 87.481689%)" offset="0.933594"/><stop stop-opacity="1" stop-color="rgb(88.75885%, 84.225464%, 87.458801%)" offset="0.9375"/><stop stop-opacity="1" stop-color="rgb(88.899231%, 84.576416%, 87.435913%)" offset="0.941406"/><stop stop-opacity="1" stop-color="rgb(89.041138%, 84.927368%, 87.414551%)" offset="0.945312"/><stop stop-opacity="1" stop-color="rgb(89.181519%, 85.27832%, 87.391663%)" offset="0.949219"/><stop stop-opacity="1" stop-color="rgb(89.321899%, 85.629272%, 87.368774%)" offset="0.953125"/><stop stop-opacity="1" stop-color="rgb(89.46228%, 85.980225%, 87.345886%)" offset="0.957031"/><stop stop-opacity="1" stop-color="rgb(89.604187%, 86.331177%, 87.322998%)" offset="0.960938"/><stop stop-opacity="1" stop-color="rgb(89.744568%, 86.682129%, 87.30011%)" offset="0.964844"/><stop stop-opacity="1" stop-color="rgb(89.886475%, 87.033081%, 87.277222%)" offset="0.96875"/><stop stop-opacity="1" stop-color="rgb(90.026855%, 87.384033%, 87.254333%)" offset="0.972656"/><stop stop-opacity="1" stop-color="rgb(90.168762%, 87.734985%, 87.232971%)" offset="0.976562"/><stop stop-opacity="1" stop-color="rgb(90.309143%, 88.085938%, 87.210083%)" offset="0.980469"/><stop stop-opacity="1" stop-color="rgb(90.45105%, 88.43689%, 87.187195%)" offset="0.984375"/><stop stop-opacity="1" stop-color="rgb(90.591431%, 88.787842%, 87.164307%)" offset="0.988281"/><stop stop-opacity="1" stop-color="rgb(90.733337%, 89.138794%, 87.141418%)" offset="0.992188"/><stop stop-opacity="1" stop-color="rgb(90.866089%, 89.468384%, 87.120056%)" offset="0.996094"/><stop stop-opacity="1" stop-color="rgb(90.99884%, 89.7995%, 87.098694%)" offset="1"/></linearGradient><clipPath id="601a2ecfe4"><path d="M 153 57 L 234 57 L 234 310 L 153 310 Z M 153 57 " clip-rule="nonzero"/></clipPath><clipPath id="50ae00e227"><path d="M 170.089844 326.355469 L 37.191406 193.457031 L 172.800781 57.851562 L 305.695312 190.746094 Z M 170.089844 326.355469 " clip-rule="nonzero"/></clipPath><clipPath id="2b67bb67d7"><path d="M 170.089844 326.355469 L 37.191406 193.457031 L 172.800781 57.851562 L 305.695312 190.746094 Z M 170.089844 326.355469 " clip-rule="nonzero"/></clipPath><clipPath id="b40398a2c5"><path d="M 153.234375 258.496094 L 153.238281 262.277344 C 154.328125 262.277344 155.410156 262.226562 156.492188 262.121094 C 157.574219 262.015625 158.648438 261.855469 159.714844 261.644531 C 160.78125 261.433594 161.835938 261.171875 162.875 260.855469 C 163.914062 260.542969 164.9375 260.175781 165.941406 259.761719 C 166.945312 259.347656 167.925781 258.882812 168.886719 258.371094 C 169.84375 257.859375 170.773438 257.300781 171.675781 256.699219 C 172.578125 256.097656 173.453125 255.449219 174.289062 254.761719 C 175.128906 254.074219 175.933594 253.34375 176.703125 252.578125 C 177.46875 251.808594 178.199219 251.003906 178.886719 250.167969 C 179.574219 249.328125 180.222656 248.457031 180.824219 247.550781 C 181.425781 246.648438 181.984375 245.71875 182.496094 244.761719 C 183.007812 243.800781 183.46875 242.820312 183.886719 241.816406 C 184.300781 240.8125 184.664062 239.792969 184.980469 238.75 C 185.296875 237.710938 185.558594 236.660156 185.769531 235.59375 C 185.980469 234.527344 186.140625 233.453125 186.246094 232.371094 C 186.351562 231.289062 186.402344 230.203125 186.402344 229.113281 L 186.128906 71.179688 L 182.339844 67.390625 L 182.621094 229.109375 C 182.621094 230.070312 182.574219 231.035156 182.480469 231.992188 C 182.386719 232.953125 182.246094 233.902344 182.058594 234.847656 C 181.875 235.792969 181.640625 236.726562 181.363281 237.648438 C 181.082031 238.570312 180.757812 239.476562 180.390625 240.367188 C 180.023438 241.253906 179.613281 242.125 179.160156 242.972656 C 178.707031 243.824219 178.214844 244.648438 177.679688 245.449219 C 177.144531 246.25 176.570312 247.019531 175.960938 247.765625 C 175.351562 248.507812 174.707031 249.222656 174.027344 249.902344 C 173.34375 250.582031 172.632812 251.226562 171.890625 251.835938 C 171.144531 252.449219 170.371094 253.019531 169.574219 253.554688 C 168.773438 254.089844 167.949219 254.582031 167.097656 255.035156 C 166.25 255.488281 165.378906 255.898438 164.488281 256.265625 C 163.601562 256.636719 162.695312 256.957031 161.773438 257.238281 C 160.851562 257.515625 159.917969 257.75 158.972656 257.9375 C 158.027344 258.125 157.074219 258.261719 156.117188 258.355469 C 155.15625 258.449219 154.195312 258.496094 153.234375 258.496094 Z M 173.144531 229.105469 C 173.144531 229.761719 173.113281 230.414062 173.050781 231.0625 C 172.988281 231.714844 172.890625 232.359375 172.765625 233 C 172.636719 233.640625 172.480469 234.277344 172.289062 234.902344 C 172.101562 235.527344 171.882812 236.140625 171.632812 236.746094 C 171.382812 237.347656 171.105469 237.9375 170.796875 238.515625 C 170.488281 239.089844 170.152344 239.652344 169.789062 240.195312 C 169.429688 240.738281 169.039062 241.261719 168.625 241.765625 C 168.210938 242.269531 167.773438 242.753906 167.3125 243.214844 C 166.851562 243.675781 166.367188 244.113281 165.863281 244.527344 C 165.355469 244.945312 164.832031 245.332031 164.289062 245.695312 C 163.746094 246.058594 163.1875 246.390625 162.609375 246.699219 C 162.035156 247.007812 161.445312 247.285156 160.839844 247.535156 C 160.238281 247.785156 159.621094 248.003906 158.996094 248.195312 C 158.371094 248.382812 157.738281 248.542969 157.097656 248.667969 C 156.457031 248.796875 155.808594 248.890625 155.160156 248.953125 C 154.507812 249.019531 153.855469 249.050781 153.203125 249.050781 L 153.207031 252.832031 C 153.988281 252.832031 154.761719 252.792969 155.535156 252.71875 C 156.308594 252.640625 157.078125 252.527344 157.839844 252.378906 C 158.601562 252.226562 159.355469 252.039062 160.101562 251.8125 C 160.84375 251.585938 161.574219 251.328125 162.292969 251.03125 C 163.011719 250.734375 163.710938 250.402344 164.398438 250.035156 C 165.082031 249.667969 165.75 249.269531 166.394531 248.839844 C 167.039062 248.410156 167.664062 247.945312 168.261719 247.453125 C 168.863281 246.960938 169.4375 246.441406 169.988281 245.890625 C 170.535156 245.34375 171.058594 244.769531 171.550781 244.167969 C 172.042969 243.566406 172.503906 242.945312 172.9375 242.296875 C 173.367188 241.652344 173.765625 240.988281 174.132812 240.300781 C 174.496094 239.617188 174.828125 238.914062 175.125 238.195312 C 175.421875 237.480469 175.683594 236.746094 175.910156 236.003906 C 176.132812 235.261719 176.320312 234.507812 176.472656 233.746094 C 176.625 232.980469 176.738281 232.214844 176.8125 231.441406 C 176.890625 230.667969 176.925781 229.890625 176.925781 229.113281 L 176.640625 61.695312 L 172.859375 57.914062 Z M 180.734375 256.613281 C 178.9375 258.421875 176.976562 260.039062 174.859375 261.457031 C 172.738281 262.875 170.496094 264.070312 168.136719 265.042969 C 165.78125 266.019531 163.347656 266.75 160.839844 267.242188 C 158.335938 267.730469 155.804688 267.96875 153.25 267.957031 L 153.253906 271.742188 C 154.652344 271.742188 156.046875 271.675781 157.4375 271.542969 C 158.832031 271.40625 160.210938 271.203125 161.582031 270.933594 C 162.953125 270.664062 164.304688 270.328125 165.644531 269.921875 C 166.980469 269.519531 168.292969 269.050781 169.585938 268.519531 C 170.875 267.984375 172.136719 267.390625 173.367188 266.734375 C 174.601562 266.078125 175.796875 265.359375 176.957031 264.585938 C 178.117188 263.8125 179.238281 262.980469 180.316406 262.097656 C 181.398438 261.210938 182.429688 260.277344 183.417969 259.289062 C 184.402344 258.300781 185.339844 257.269531 186.222656 256.191406 C 187.109375 255.109375 187.9375 253.992188 188.714844 252.828125 C 189.488281 251.667969 190.203125 250.472656 190.863281 249.242188 C 191.519531 248.007812 192.113281 246.746094 192.644531 245.457031 C 193.179688 244.167969 193.648438 242.851562 194.050781 241.515625 C 194.453125 240.179688 194.792969 238.824219 195.0625 237.453125 C 195.332031 236.082031 195.535156 234.703125 195.667969 233.3125 C 195.804688 231.921875 195.871094 230.527344 195.867188 229.128906 L 195.605469 80.65625 L 191.816406 76.867188 L 192.082031 229.125 C 192.09375 231.679688 191.855469 234.210938 191.363281 236.71875 C 190.875 239.222656 190.140625 241.65625 189.167969 244.015625 C 188.195312 246.375 186.996094 248.617188 185.578125 250.734375 C 184.160156 252.855469 182.542969 254.816406 180.734375 256.613281 Z M 207.542969 283.425781 C 205.773438 285.203125 203.921875 286.890625 201.984375 288.488281 C 200.046875 290.082031 198.03125 291.578125 195.945312 292.972656 C 193.859375 294.371094 191.710938 295.660156 189.496094 296.84375 C 187.28125 298.027344 185.011719 299.097656 182.691406 300.054688 C 180.367188 301.011719 178.003906 301.851562 175.601562 302.578125 C 173.195312 303.300781 170.757812 303.90625 168.292969 304.386719 C 165.828125 304.871094 163.34375 305.230469 160.839844 305.46875 C 158.335938 305.703125 155.828125 305.816406 153.316406 305.804688 L 153.316406 309.582031 C 154.636719 309.585938 155.953125 309.554688 157.269531 309.492188 C 158.585938 309.433594 159.898438 309.335938 161.210938 309.210938 C 162.523438 309.082031 163.828125 308.925781 165.132812 308.734375 C 166.4375 308.542969 167.734375 308.320312 169.027344 308.066406 C 170.320312 307.808594 171.605469 307.523438 172.882812 307.207031 C 174.160156 306.886719 175.429688 306.539062 176.6875 306.15625 C 177.949219 305.777344 179.199219 305.367188 180.441406 304.925781 C 181.679688 304.484375 182.910156 304.011719 184.125 303.507812 C 185.34375 303.007812 186.546875 302.476562 187.738281 301.914062 C 188.925781 301.351562 190.101562 300.761719 191.265625 300.144531 C 192.425781 299.523438 193.570312 298.875 194.699219 298.199219 C 195.828125 297.523438 196.941406 296.820312 198.035156 296.089844 C 199.128906 295.363281 200.207031 294.605469 201.265625 293.820312 C 202.320312 293.039062 203.359375 292.230469 204.375 291.394531 C 205.394531 290.5625 206.390625 289.703125 207.363281 288.820312 C 208.339844 287.933594 209.292969 287.027344 210.222656 286.097656 C 211.152344 285.167969 212.058594 284.214844 212.941406 283.238281 C 213.828125 282.265625 214.683594 281.269531 215.519531 280.25 C 216.355469 279.234375 217.164062 278.195312 217.945312 277.140625 C 218.730469 276.082031 219.484375 275.007812 220.214844 273.910156 C 220.945312 272.816406 221.648438 271.707031 222.324219 270.574219 C 223 269.445312 223.648438 268.300781 224.265625 267.140625 C 224.886719 265.980469 225.476562 264.804688 226.039062 263.613281 C 226.597656 262.421875 227.132812 261.21875 227.632812 260 C 228.136719 258.785156 228.609375 257.554688 229.050781 256.316406 C 229.492188 255.074219 229.902344 253.824219 230.28125 252.566406 C 230.664062 251.304688 231.011719 250.035156 231.328125 248.757812 C 231.648438 247.480469 231.933594 246.195312 232.1875 244.902344 C 232.445312 243.609375 232.667969 242.3125 232.859375 241.007812 C 233.050781 239.707031 233.207031 238.398438 233.335938 237.085938 C 233.460938 235.773438 233.554688 234.460938 233.617188 233.144531 C 233.679688 231.828125 233.710938 230.511719 233.707031 229.195312 L 233.515625 118.566406 L 229.730469 114.78125 L 229.929688 229.191406 C 229.941406 231.707031 229.828125 234.214844 229.589844 236.714844 C 229.355469 239.21875 228.992188 241.703125 228.511719 244.167969 C 228.027344 246.636719 227.425781 249.070312 226.699219 251.476562 C 225.976562 253.882812 225.136719 256.246094 224.175781 258.566406 C 223.21875 260.890625 222.148438 263.15625 220.964844 265.371094 C 219.78125 267.585938 218.492188 269.738281 217.097656 271.824219 C 215.699219 273.910156 214.203125 275.925781 212.609375 277.863281 C 211.011719 279.800781 209.324219 281.652344 207.542969 283.425781 Z M 200.832031 276.710938 C 197.722656 279.839844 194.335938 282.628906 190.667969 285.085938 C 187.003906 287.539062 183.132812 289.613281 179.054688 291.296875 C 174.976562 292.984375 170.773438 294.253906 166.4375 295.105469 C 162.105469 295.957031 157.730469 296.375 153.3125 296.359375 L 153.316406 300.136719 C 154.480469 300.136719 155.640625 300.113281 156.804688 300.058594 C 157.964844 300.003906 159.125 299.917969 160.28125 299.808594 C 161.4375 299.695312 162.59375 299.554688 163.742188 299.386719 C 164.894531 299.21875 166.039062 299.019531 167.179688 298.796875 C 168.320312 298.570312 169.453125 298.320312 170.582031 298.039062 C 171.707031 297.757812 172.828125 297.449219 173.941406 297.113281 C 175.054688 296.777344 176.15625 296.414062 177.25 296.027344 C 178.347656 295.636719 179.429688 295.21875 180.503906 294.777344 C 181.578125 294.332031 182.640625 293.863281 183.691406 293.367188 C 184.742188 292.871094 185.78125 292.351562 186.804688 291.804688 C 187.828125 291.257812 188.839844 290.6875 189.835938 290.089844 C 190.832031 289.496094 191.8125 288.875 192.78125 288.230469 C 193.746094 287.585938 194.695312 286.917969 195.628906 286.226562 C 196.5625 285.535156 197.476562 284.820312 198.375 284.085938 C 199.273438 283.347656 200.152344 282.589844 201.011719 281.8125 C 201.875 281.03125 202.714844 280.230469 203.535156 279.410156 C 204.355469 278.589844 205.15625 277.75 205.9375 276.886719 C 206.714844 276.027344 207.472656 275.148438 208.210938 274.25 C 208.945312 273.351562 209.660156 272.4375 210.351562 271.503906 C 211.042969 270.570312 211.710938 269.621094 212.355469 268.65625 C 213 267.691406 213.621094 266.707031 214.214844 265.710938 C 214.8125 264.714844 215.382812 263.703125 215.929688 262.679688 C 216.476562 261.65625 216.996094 260.617188 217.492188 259.566406 C 217.988281 258.515625 218.457031 257.453125 218.902344 256.378906 C 219.34375 255.304688 219.761719 254.222656 220.148438 253.128906 C 220.539062 252.03125 220.902344 250.929688 221.238281 249.816406 C 221.574219 248.703125 221.882812 247.585938 222.164062 246.457031 C 222.441406 245.328125 222.695312 244.195312 222.921875 243.054688 C 223.144531 241.914062 223.34375 240.769531 223.511719 239.617188 C 223.679688 238.46875 223.820312 237.3125 223.929688 236.15625 C 224.042969 235 224.125 233.839844 224.179688 232.679688 C 224.238281 231.515625 224.261719 230.355469 224.261719 229.191406 L 224.050781 109.101562 L 220.253906 105.304688 L 220.480469 229.1875 C 220.5 233.609375 220.082031 237.984375 219.234375 242.316406 C 218.382812 246.652344 217.113281 250.859375 215.429688 254.9375 C 213.742188 259.015625 211.671875 262.890625 209.21875 266.554688 C 206.761719 270.222656 203.96875 273.609375 200.839844 276.71875 Z M 194.117188 269.996094 C 191.441406 272.683594 188.527344 275.082031 185.371094 277.1875 C 182.21875 279.296875 178.886719 281.074219 175.378906 282.519531 C 171.871094 283.964844 168.253906 285.050781 164.527344 285.777344 C 160.800781 286.503906 157.039062 286.859375 153.238281 286.839844 L 153.285156 290.660156 C 155.304688 290.664062 157.316406 290.570312 159.324219 290.375 C 161.332031 290.179688 163.324219 289.886719 165.300781 289.5 C 167.28125 289.109375 169.234375 288.621094 171.164062 288.039062 C 173.09375 287.457031 174.992188 286.78125 176.855469 286.011719 C 178.714844 285.246094 180.535156 284.386719 182.316406 283.4375 C 184.09375 282.488281 185.820312 281.457031 187.496094 280.339844 C 189.171875 279.222656 190.789062 278.023438 192.34375 276.746094 C 193.902344 275.46875 195.394531 274.117188 196.816406 272.695312 C 198.242188 271.269531 199.59375 269.777344 200.871094 268.222656 C 202.148438 266.664062 203.34375 265.046875 204.464844 263.371094 C 205.582031 261.695312 206.613281 259.96875 207.5625 258.191406 C 208.511719 256.414062 209.367188 254.59375 210.136719 252.730469 C 210.90625 250.867188 211.582031 248.96875 212.164062 247.039062 C 212.746094 245.109375 213.234375 243.15625 213.621094 241.179688 C 214.011719 239.199219 214.304688 237.207031 214.5 235.199219 C 214.691406 233.191406 214.789062 231.179688 214.785156 229.160156 L 214.5625 99.613281 L 210.773438 95.824219 L 211.007812 229.179688 C 211.023438 232.976562 210.664062 236.734375 209.933594 240.460938 C 209.203125 244.183594 208.117188 247.796875 206.667969 251.300781 C 205.21875 254.808594 203.441406 258.132812 201.335938 261.285156 C 199.226562 264.433594 196.828125 267.347656 194.140625 270.019531 Z M 153.265625 277.421875 L 153.273438 281.203125 C 154.980469 281.203125 156.679688 281.121094 158.378906 280.953125 C 160.078125 280.785156 161.761719 280.539062 163.433594 280.207031 C 165.109375 279.875 166.761719 279.460938 168.394531 278.96875 C 170.023438 278.472656 171.628906 277.898438 173.203125 277.25 C 174.777344 276.597656 176.316406 275.871094 177.820312 275.066406 C 179.324219 274.265625 180.785156 273.390625 182.203125 272.445312 C 183.617188 271.496094 184.984375 270.484375 186.304688 269.402344 C 187.621094 268.324219 188.882812 267.179688 190.085938 265.976562 C 191.289062 264.769531 192.433594 263.511719 193.515625 262.191406 C 194.59375 260.875 195.609375 259.507812 196.554688 258.089844 C 197.5 256.675781 198.375 255.214844 199.175781 253.710938 C 199.980469 252.207031 200.707031 250.667969 201.359375 249.09375 C 202.011719 247.519531 202.582031 245.914062 203.078125 244.28125 C 203.570312 242.652344 203.984375 240.996094 204.316406 239.324219 C 204.648438 237.652344 204.898438 235.964844 205.0625 234.269531 C 205.230469 232.570312 205.3125 230.867188 205.3125 229.160156 L 205.070312 90.164062 L 201.28125 86.375 L 201.542969 229.140625 C 201.546875 230.726562 201.46875 232.304688 201.316406 233.878906 C 201.164062 235.457031 200.933594 237.019531 200.625 238.574219 C 200.320312 240.125 199.9375 241.660156 199.480469 243.171875 C 199.023438 244.6875 198.492188 246.175781 197.886719 247.636719 C 197.28125 249.097656 196.609375 250.527344 195.863281 251.921875 C 195.121094 253.320312 194.308594 254.671875 193.429688 255.988281 C 192.554688 257.304688 191.613281 258.574219 190.609375 259.796875 C 189.609375 261.015625 188.546875 262.1875 187.429688 263.304688 C 186.3125 264.421875 185.140625 265.484375 183.917969 266.484375 C 182.695312 267.488281 181.429688 268.429688 180.113281 269.308594 C 178.796875 270.183594 177.441406 270.996094 176.046875 271.738281 C 174.652344 272.484375 173.222656 273.160156 171.761719 273.761719 C 170.300781 274.367188 168.8125 274.898438 167.296875 275.355469 C 165.78125 275.8125 164.25 276.195312 162.695312 276.503906 C 161.144531 276.808594 159.582031 277.039062 158.003906 277.191406 C 156.429688 277.347656 154.847656 277.421875 153.265625 277.421875 Z M 153.265625 277.421875 " clip-rule="nonzero"/></clipPath><linearGradient x1="-50.369687" gradientTransform="matrix(-0.353401, -0.353401, 0.352172, -0.352172, 170.02679, 326.292627)" y1="-13.393237" x2="370.389413" gradientUnits="userSpaceOnUse" y2="498.670338" id="bddc7adaa5"><stop stop-opacity="1" stop-color="rgb(0%, 18.798828%, 100%)" offset="0"/><stop stop-opacity="1" stop-color="rgb(0%, 18.798828%, 100%)" offset="0.25"/><stop stop-opacity="1" stop-color="rgb(0%, 18.798828%, 100%)" offset="0.3125"/><stop stop-opacity="1" stop-color="rgb(0%, 18.798828%, 100%)" offset="0.320312"/><stop stop-opacity="1" stop-color="rgb(0%, 19.128418%, 100%)" offset="0.324219"/><stop stop-opacity="1" stop-color="rgb(0%, 19.458008%, 100%)" offset="0.328125"/><stop stop-opacity="1" stop-color="rgb(0%, 20.00885%, 100%)" offset="0.332031"/><stop stop-opacity="1" stop-color="rgb(0%, 20.559692%, 100%)" offset="0.335938"/><stop stop-opacity="1" stop-color="rgb(0%, 21.110535%, 100%)" offset="0.339844"/><stop stop-opacity="1" stop-color="rgb(0%, 21.662903%, 100%)" offset="0.34375"/><stop stop-opacity="1" stop-color="rgb(0%, 22.213745%, 100%)" offset="0.347656"/><stop stop-opacity="1" stop-color="rgb(0%, 22.764587%, 100%)" offset="0.351562"/><stop stop-opacity="1" stop-color="rgb(0%, 23.31543%, 100%)" offset="0.355469"/><stop stop-opacity="1" stop-color="rgb(0%, 23.867798%, 100%)" offset="0.359375"/><stop stop-opacity="1" stop-color="rgb(0%, 24.41864%, 100%)" offset="0.363281"/><stop stop-opacity="1" stop-color="rgb(0%, 24.971008%, 100%)" offset="0.367188"/><stop stop-opacity="1" stop-color="rgb(0%, 25.521851%, 100%)" offset="0.371094"/><stop stop-opacity="1" stop-color="rgb(0%, 26.072693%, 100%)" offset="0.375"/><stop stop-opacity="1" stop-color="rgb(0%, 26.623535%, 100%)" offset="0.378906"/><stop stop-opacity="1" stop-color="rgb(0%, 27.175903%, 100%)" offset="0.382812"/><stop stop-opacity="1" stop-color="rgb(0%, 27.726746%, 100%)" offset="0.386719"/><stop stop-opacity="1" stop-color="rgb(0%, 28.277588%, 100%)" offset="0.390625"/><stop stop-opacity="1" stop-color="rgb(0%, 28.82843%, 100%)" offset="0.394531"/><stop stop-opacity="1" stop-color="rgb(0%, 29.380798%, 100%)" offset="0.398438"/><stop stop-opacity="1" stop-color="rgb(0%, 29.931641%, 100%)" offset="0.402344"/><stop stop-opacity="1" stop-color="rgb(0%, 30.482483%, 100%)" offset="0.40625"/><stop stop-opacity="1" stop-color="rgb(0%, 31.033325%, 100%)" offset="0.410156"/><stop stop-opacity="1" stop-color="rgb(0%, 31.585693%, 100%)" offset="0.414062"/><stop stop-opacity="1" stop-color="rgb(0%, 32.136536%, 100%)" offset="0.417969"/><stop stop-opacity="1" stop-color="rgb(0%, 32.688904%, 100%)" offset="0.421875"/><stop stop-opacity="1" stop-color="rgb(0%, 33.239746%, 100%)" offset="0.425781"/><stop stop-opacity="1" stop-color="rgb(0%, 33.790588%, 100%)" offset="0.429688"/><stop stop-opacity="1" stop-color="rgb(0%, 34.341431%, 100%)" offset="0.433594"/><stop stop-opacity="1" stop-color="rgb(0%, 34.893799%, 100%)" offset="0.4375"/><stop stop-opacity="1" stop-color="rgb(0%, 35.444641%, 100%)" offset="0.441406"/><stop stop-opacity="1" stop-color="rgb(0%, 35.995483%, 100%)" offset="0.445312"/><stop stop-opacity="1" stop-color="rgb(0%, 36.546326%, 100%)" offset="0.449219"/><stop stop-opacity="1" stop-color="rgb(0%, 37.098694%, 100%)" offset="0.453125"/><stop stop-opacity="1" stop-color="rgb(0%, 37.649536%, 100%)" offset="0.457031"/><stop stop-opacity="1" stop-color="rgb(0%, 38.201904%, 100%)" offset="0.460938"/><stop stop-opacity="1" stop-color="rgb(0%, 38.752747%, 100%)" offset="0.464844"/><stop stop-opacity="1" stop-color="rgb(0%, 39.303589%, 100%)" offset="0.46875"/><stop stop-opacity="1" stop-color="rgb(0%, 39.854431%, 100%)" offset="0.472656"/><stop stop-opacity="1" stop-color="rgb(0%, 40.406799%, 100%)" offset="0.476562"/><stop stop-opacity="1" stop-color="rgb(0%, 40.957642%, 100%)" offset="0.480469"/><stop stop-opacity="1" stop-color="rgb(0%, 41.508484%, 100%)" offset="0.484375"/><stop stop-opacity="1" stop-color="rgb(0%, 42.059326%, 100%)" offset="0.488281"/><stop stop-opacity="1" stop-color="rgb(0%, 42.611694%, 100%)" offset="0.492188"/><stop stop-opacity="1" stop-color="rgb(0%, 43.162537%, 100%)" offset="0.496094"/><stop stop-opacity="1" stop-color="rgb(0%, 43.714905%, 100%)" offset="0.5"/><stop stop-opacity="1" stop-color="rgb(0%, 44.265747%, 100%)" offset="0.503906"/><stop stop-opacity="1" stop-color="rgb(0%, 44.816589%, 100%)" offset="0.507812"/><stop stop-opacity="1" stop-color="rgb(0%, 45.367432%, 100%)" offset="0.511719"/><stop stop-opacity="1" stop-color="rgb(0%, 45.9198%, 100%)" offset="0.515625"/><stop stop-opacity="1" stop-color="rgb(0%, 46.470642%, 100%)" offset="0.519531"/><stop stop-opacity="1" stop-color="rgb(0%, 47.021484%, 100%)" offset="0.523438"/><stop stop-opacity="1" stop-color="rgb(0%, 47.572327%, 100%)" offset="0.527344"/><stop stop-opacity="1" stop-color="rgb(0%, 48.124695%, 100%)" offset="0.53125"/><stop stop-opacity="1" stop-color="rgb(0%, 48.675537%, 100%)" offset="0.535156"/><stop stop-opacity="1" stop-color="rgb(0%, 49.227905%, 100%)" offset="0.539062"/><stop stop-opacity="1" stop-color="rgb(0%, 49.778748%, 100%)" offset="0.542969"/><stop stop-opacity="1" stop-color="rgb(0%, 50.32959%, 100%)" offset="0.546875"/><stop stop-opacity="1" stop-color="rgb(0%, 50.880432%, 100%)" offset="0.550781"/><stop stop-opacity="1" stop-color="rgb(0%, 51.4328%, 100%)" offset="0.554688"/><stop stop-opacity="1" stop-color="rgb(0%, 51.983643%, 100%)" offset="0.558594"/><stop stop-opacity="1" stop-color="rgb(0%, 52.534485%, 100%)" offset="0.5625"/><stop stop-opacity="1" stop-color="rgb(0%, 53.085327%, 100%)" offset="0.566406"/><stop stop-opacity="1" stop-color="rgb(0%, 53.637695%, 100%)" offset="0.570312"/><stop stop-opacity="1" stop-color="rgb(0%, 54.188538%, 100%)" offset="0.574219"/><stop stop-opacity="1" stop-color="rgb(0%, 54.740906%, 100%)" offset="0.578125"/><stop stop-opacity="1" stop-color="rgb(0%, 55.291748%, 100%)" offset="0.582031"/><stop stop-opacity="1" stop-color="rgb(0%, 55.84259%, 100%)" offset="0.585938"/><stop stop-opacity="1" stop-color="rgb(0%, 56.393433%, 100%)" offset="0.589844"/><stop stop-opacity="1" stop-color="rgb(0%, 56.945801%, 100%)" offset="0.59375"/><stop stop-opacity="1" stop-color="rgb(0%, 57.496643%, 100%)" offset="0.597656"/><stop stop-opacity="1" stop-color="rgb(0%, 58.047485%, 100%)" offset="0.601562"/><stop stop-opacity="1" stop-color="rgb(0%, 58.598328%, 100%)" offset="0.605469"/><stop stop-opacity="1" stop-color="rgb(0%, 59.150696%, 100%)" offset="0.609375"/><stop stop-opacity="1" stop-color="rgb(0%, 59.701538%, 100%)" offset="0.613281"/><stop stop-opacity="1" stop-color="rgb(0%, 60.25238%, 100%)" offset="0.617188"/><stop stop-opacity="1" stop-color="rgb(0%, 60.803223%, 100%)" offset="0.621094"/><stop stop-opacity="1" stop-color="rgb(0%, 61.355591%, 100%)" offset="0.625"/><stop stop-opacity="1" stop-color="rgb(0%, 61.906433%, 100%)" offset="0.628906"/><stop stop-opacity="1" stop-color="rgb(0%, 62.458801%, 100%)" offset="0.632812"/><stop stop-opacity="1" stop-color="rgb(0%, 63.009644%, 100%)" offset="0.636719"/><stop stop-opacity="1" stop-color="rgb(0%, 63.560486%, 100%)" offset="0.640625"/><stop stop-opacity="1" stop-color="rgb(0%, 64.111328%, 100%)" offset="0.644531"/><stop stop-opacity="1" stop-color="rgb(0%, 64.663696%, 100%)" offset="0.648438"/><stop stop-opacity="1" stop-color="rgb(0%, 65.214539%, 100%)" offset="0.652344"/><stop stop-opacity="1" stop-color="rgb(0%, 65.765381%, 100%)" offset="0.65625"/><stop stop-opacity="1" stop-color="rgb(0%, 66.316223%, 100%)" offset="0.660156"/><stop stop-opacity="1" stop-color="rgb(0%, 66.868591%, 100%)" offset="0.664062"/><stop stop-opacity="1" stop-color="rgb(0%, 67.419434%, 100%)" offset="0.667969"/><stop stop-opacity="1" stop-color="rgb(0%, 67.971802%, 100%)" offset="0.671875"/><stop stop-opacity="1" stop-color="rgb(0%, 68.522644%, 100%)" offset="0.675781"/><stop stop-opacity="1" stop-color="rgb(0%, 69.073486%, 100%)" offset="0.679688"/><stop stop-opacity="1" stop-color="rgb(0%, 69.624329%, 100%)" offset="0.683594"/><stop stop-opacity="1" stop-color="rgb(0%, 70.176697%, 100%)" offset="0.6875"/><stop stop-opacity="1" stop-color="rgb(0%, 70.727539%, 100%)" offset="0.691406"/><stop stop-opacity="1" stop-color="rgb(0%, 71.278381%, 100%)" offset="0.695312"/><stop stop-opacity="1" stop-color="rgb(0%, 71.829224%, 100%)" offset="0.699219"/><stop stop-opacity="1" stop-color="rgb(0%, 72.381592%, 100%)" offset="0.703125"/><stop stop-opacity="1" stop-color="rgb(0%, 72.932434%, 100%)" offset="0.707031"/><stop stop-opacity="1" stop-color="rgb(0%, 73.484802%, 100%)" offset="0.710938"/><stop stop-opacity="1" stop-color="rgb(0%, 74.035645%, 100%)" offset="0.714844"/><stop stop-opacity="1" stop-color="rgb(0%, 74.586487%, 100%)" offset="0.71875"/><stop stop-opacity="1" stop-color="rgb(0%, 75.137329%, 100%)" offset="0.722656"/><stop stop-opacity="1" stop-color="rgb(0%, 75.689697%, 100%)" offset="0.726562"/><stop stop-opacity="1" stop-color="rgb(0%, 75.894165%, 100%)" offset="0.730469"/><stop stop-opacity="1" stop-color="rgb(0%, 76.098633%, 100%)" offset="0.734375"/><stop stop-opacity="1" stop-color="rgb(0%, 76.098633%, 100%)" offset="0.75"/><stop stop-opacity="1" stop-color="rgb(0%, 76.098633%, 100%)" offset="1"/></linearGradient></defs><g clip-path="url(#b5c7448006)"><g clip-path="url(#ef91c56a70)"><g clip-path="url(#3345b4017c)"><g clip-path="url(#7f1521ca7d)"><path fill="url(#3d0584fa2c)" d="M 72.617188 148.117188 L 72.953125 309.648438 L 175.320312 309.863281 L 174.980469 148.328125 Z M 72.617188 148.117188 " fill-rule="nonzero"/></g></g></g></g><g clip-path="url(#f164e4b7dd)"><g clip-path="url(#5add8b8089)"><g clip-path="url(#354fa2d549)"><g clip-path="url(#b91a665d2d)"><path fill="url(#ce2d03e2a5)" d="M 229.863281 148.289062 L 229.800781 209.164062 L 315.503906 209.078125 L 315.566406 148.199219 Z M 229.863281 148.289062 " fill-rule="nonzero"/></g></g></g></g><g clip-path="url(#601a2ecfe4)"><g clip-path="url(#50ae00e227)"><g clip-path="url(#2b67bb67d7)"><g clip-path="url(#b40398a2c5)"><path fill="url(#bddc7adaa5)" d="M 193.457031 349.839844 L 359.546875 183.75 L 193.457031 17.660156 L 27.363281 183.75 Z M 193.457031 349.839844 " fill-rule="nonzero"/></g></g></g></g></svg>